<mxfile host="app.diagrams.net" modified="2021-03-19T06:04:31.052Z" agent="5.0 (Windows NT 10.0; Win64; x64) AppleWebKit/537.36 (KHTML, like Gecko) Chrome/89.0.4389.90 Safari/537.36" etag="rM-0TaWNuLeHUuEt_fXT" version="14.4.8" type="github">
  <diagram id="ELOPtdUXdZDpT7hzas2I" name="ページ1">
    <mxGraphModel dx="1038" dy="548" grid="1" gridSize="10" guides="1" tooltips="1" connect="1" arrows="1" fold="1" page="1" pageScale="1" pageWidth="827" pageHeight="1169" math="0" shadow="0">
      <root>
        <mxCell id="0" />
        <mxCell id="1" parent="0" />
        <mxCell id="HQY0Pmsq2hyEvdaL4K9q-1" value="" style="shape=image;verticalLabelPosition=bottom;labelBackgroundColor=#ffffff;verticalAlign=top;aspect=fixed;imageAspect=0;image=data:image/png,iVBORw0KGgoAAAANSUhEUgAABCYAAAFKCAYAAADBpV65AAAgAElEQVR4Aey9+3dUZbrvy39wzhj+0j+cPdZue/W9bZP0DzA2utm02z6OxfHskcUYHmi26fTWFRYbWHQLcgR0Na0tlxYiZy3CRgKRm5KgEBBMWiQqJIIEDBYGEkECQrhaGiyJUBr9nvHMOd853zlrzqpZ90ryrTEqs2pe3svnfapSz3c+7/OOGfNEN/gkA9oAbYA2QBugDdAGaAO0AdoAbYA2QBugDdAGimIDRamUYgjFINoAbYA2QBugDdAGaAO0AdoAbYA2QBugDdAGxAYoTFARow3QBmgDtAHaAG2ANkAboA3QBmgDtAHaAG2gaDZQtIqpjFEZow3QBmgDtAHaAG2ANkAboA3QBmgDtAHaAG2AwgRVMdoAbYA2QBugDdAGaAO0AdoAbYA2QBugDdAGimYDRauYqhhVMdoAbYA2QBugDdAGaAO0AdoAbYA2QBugDdAGKExQFaMN0AZoA7QB2gBtgDZAG6AN0AZoA7QB2gBtoGg2ULSKqYpRFaMN0AZKwAb+btlHWP7Op9hzKsYnGdAGaAO0AdoAbYA2QBugDdAGimADXJWjBBwjikNUJmkDxbMBihIUZChK0QZoA7QB2gBtgDZAG6ANFNcGKExQmOBde9rAqLYB/hMq7j8h8id/2gBtgDZAG6AN0AZoA7QBChN0Ske1U8pIheJFKpQKe/4j5D9C2gBtgDZAG6AN0AZoA7QB2kBxbYDCBIUJChO0gVFtA/wnVNx/QuRP/rQB2gBtgDZAG6AN0AZoAxQm6JSOaqe0VO7asx3Fi9zgP0L+I6QN0AZoA7QB2gBtgDZAG6ANFNcGKExQmKAwQRsY1TbAf0LF/SdE/uRPG6AN0AZoA7QB2gBtgDZAYYJO6ah2ShmpULxIhVJhz3+E/EdIG6AN0AZoA7QB2gBtgDZAGyiuDVCYKBVh4rmL+EvnDaxvu4jvl0qb2A6KNqPABvhPqLj/hIrCv+soque/gYa33sCk2i7sLMJa3a5+n+hCzZw9WN09Csei2OxZP1y2SB7kQRugDdAGaANFsgEKEyXieP321DcwH9/g9aYRcBf7uct46eI3GPjW6lbsS8wsEdalcqee7SgNO8/Fj/L/d9txjH/iVdwxtQ7/4ff1uH/xa3iu9UwO/rF1oWbqJiw65HFY9+7AHVN34Pki/ePIBTNXGb79Ceh7Wn0+j0Xz6vCbTecTxmL1qgbMfOM0Hp+zFYs7PXzTqiONaxP6eR6Ln9qGZztjaNjQgOqd0YR27nnvIB56ZAeez7to0YWaRxrw+Ftp9CeA0/Mr6nDHiq7EvgSc77KFUOdE8IeZu/D8icS2NrzQgHte6Em/bhmbZ98rvkgVqv+J/U6fIcsgM9oAbYA2QBsoLRvIWpiofqUff3rzWlZPKWNYO2nHblvet2zieGlDEoer/ZZ27m2st5z177fcxBVx4mM3Mfe5JNcPC+f+NFZc/s7u5634d7gl/ZK2b7iCHefiGPjG6Xvosd83CJve9c8ZWTIsbKH0bTmbf0pNXVFDkBAhou4tx/n9c/NJlP3hZYhgkU35e04FOOcJDm4MO3fuwD3PHERTgGOzdctW3PWng9gacDywnYf24zdT6wzRRYSXxOd2/PWDLP+x+fQnsO9ptT9YmNjzZgsmru5G08vbUPPaAMz6/Pqn9tXj8Xdy38+dO7fjNxtOY8/B/Zi0wid6o/soqqc2YFFHlnWn4tYh4+wZy479qJzfgtXH0qs7bWGi+zz+Wr8dlf+kWNdh7GPb8IfXLgZ8fuRz4SPMSR/mbEf1oq1YdFDG1K/dpk0k2rFTd8KxvIosfm3kPv+xIxdyoQ3QBmgDI9kGshYmVnVE8U7fzayeUkZo57QUnTGXMAFc6b0U0J/TWH3Z9tcBZOCcl2L/E9oURZcVKdF34pybxd6bGDAQpN/3FS52KQSghDaVvoM8rD8Dw5h3Nl/wj/yvdvy3ZX/zdYBEtPjRP2+EiBSZ1xFemNjT9R6mPbwWM9/w/6fd8GID7lh+NIu2JJZrlDlvf/pih9dhLIYw4W1Dsvev7cAdD+cgasGvn90yjeMNvBBY/1ks+mMdavYm8s/crhLLamrciju8Y3ksgj88Voc7Hq5H9at+IsF5LH52OxZ7RIC0hImOg3hoej0e2tSNpmPvYZoRITSApjf346HpdZi06ayPzfoIE11dqJmxyRRwjNcNmNly2efaxL4bHGVsshIgpE0+0TkBwl5uxtP6fvibKR7mpswAPoH2yfNz+TlkWbQn2gBtYDTbQNbCBJ2pboxRwoSathAfxCI/R23DDfSJUy4RBBk658OD9+c4Zekvp455BIFMhYnnPrPEjm9wJWYWfuXURbfo4cec+8gohQ1k+g9AhAe5syrboDIkYkKiKYKOp96fhjBxKobVq9bizqX+4ejPL6/DPS+czqIt3h8Ll/HsU9mVaTiwvlEYPnevM3IaAyImunrw+DO78HyXt0/+71f/29rchPn7CRMBDt/OrstoOnYWq3e9i5mP1aFi/g7MfG4bfjOzHvf8Ux3urI1kPJYSPVP5Qo82bSGKvz4bMJbdl7H63xpw59Q6TFzTrV0Twx4jmmMtZr7p5hZamOjuxkxdfDCceC0SwojiaMDjB1X5pvOvRzQY03QOvYvqGZvweNs1h4mM8aK1mFh7FFtdUz4Sy9DL8339VHAkkvoM+/XZtG//qVh+04tUWWG3WzdtcsSUNGwrbPk8T9kdt7QF2gBtgDZQCBugMJHCaQklBChh4tYtdFlOc9e7pxMcwkd6zTwSfecGE6MGAh320/ht+5c4ddOZGoFvv0PfCdMpn3t2yPTSr3+Of3j3lpXTwYlG+P62KF6/PoRbSjQBcOvmbbz02sfu9qmcECrVhXHeLazX812stvJG6OfciqOt3UnYabfHEibUZuDsFay/rt65twnihc+Y/PqDuHlR9AYeUa9jX+IR17mOIOKuwXp3S6aTXEGbNR9E2qSPr9124zxTULH3heX7zRBOdV1GuatdHnGGx1zc9TEoxutMv2glh4TklUh1vTg6qc4JPp6eMLHnnTdwz1S/nAnmXfdprwaLKMFtCPhn/IHc3U50StMuRxxzX6cqoO8Bjrx/vT7ChOHE1uEni97AC6GEidN4fGYdHmpM4+57UBt9+5nId3VtHX7yT/W4Z2YDHnpuF6rnr8UdC1rw15YebD122VcMCxJ5fB3gY0dRM6MO99QeRZPkrpCoDYm28QgMOtOmV3egutETNfHmHlR4p3+cisHPSdfLUq+bXt6KO3WnX4SIR/ZgtcZPykoQ1Gw7H0DD1m2YOHsbFm/YnjjNaMW7eGHTNtzzu01Y5BI3NPHDquuFVw/iBb8pKyKWpBTFEm3VEA28EShavxSDzLembTtREj62ntP6Eu0087azLLKjDdAGaAO0gUQboDCRCyfRFiZu4i/KaU7IgXANh8S3/vYWVh9QuRIcAWGMrzBxGrZjLL71N9/ByNcQ/w5XTptOtX3887gZjWH44Ga5dt4K2fetda0tKnyHU8fOWw7iJbxuCSr4dgh9V2/j1OcieAyhba/lVG/6HHZ+zoSyAHHyZTWR33YO4tTVb+xcELdu3Mapq7dxqPMiFnXfxqmoJaTgO1yReq7exo59qRz3c3gpaooLfR+cwxgVeYLvcMh17TXssMqUco2n0Q+5VvU3Q2EiBV+jn9e/sQUgxaMYjjbrTGVP7uOZ/mMQYSJMNERBhYlTp/H4Y3Ln2DO//thBPJTjPAVG6L/HicyUZUGEie7LlpNaj2mb9GiBxH+Mrn4YzvdWPOvntKbr+BnCRB3umr8dj2/vMUWBMGXIVJI/7kdDmHPtcy5i8fw6TNriERPU8a4IZv6xDmOXvoeGV7fjzgzG0ogk0YUFq2xDmHh4LSb+qQWL3zyLnb6JO82IG1fCT+HjceZ3vrodd3jq2LppO+5Z1IDKNd3Y895ZbNXL37sjMdlpt/55EBHBI0x07Mek+fvRYJRzHs+uegOrlWglwoSnTS77kD4ntFvqyHT6jU/71Jjp24Q6Y8i/GJLis6K3j6+zEKTJOeEzRnuiPdEGRoUNZC1MMPmlNpVD7rTbTrM7B8L337Vu01/+DN9XQoaeY8JHmPh+mxIwJELism+yR1uYkAiHy5/ht3biTEdsuHX9hrb/Yyw6Z4kD39zCCjn/NZX34Rvs2OQ4bd/fdg1zjYgJLTfGzZtYtFqdcxq/7bIiGfANXn9F7XciFxKiIXz6mdKRfuVLXFGCi9G/03b0xa1z15LcfT+PHZ+bgsYtiXgwRKgMhYkkfPu6nYgREYPMHBru8U/Zx1wIZCwjiS0o20zcZvoD6MVDl40cEsmul4SYkgQz2TnJjyXeiTXONxxcj3OV5J+2JFh0OZ7G9T7TJbRpFc6dWL8fybKaRR0mStLGJPWGPubXH2OagH8YvG+4vW/bzbvI9zy1DZMeWYuJz+73vyse2Ico/rq0LnB6TOj+qfKNfm7D49tb8NBsyd2wFpOeC7hTr66RrTGlIfx4m+3y3lH3GUdLnBCeaY9ldwQzH6nzXUnEECaWvo3nN+3ApEfqcMfvNqHm5W6PECO27RZ8XFMTVP+FmUsYOI3Ha/dg5or9WLxqq5FTwqhPG3+Xfcx8I0DQOYtFCzahZvtB1Dy2w5rWM4CGFzfhHr8kpKo9Plup3xWZ4mfPPtf52084YSKhTik/q3p97CN0m3mt/1iSC7nQBmgDtIF0bCBrYYLJLz3CxBOOE+8kwVR3/K07/CGFCTvZo4gZAU6nLUxIJIYtSnTDicCIY4d3lZDnHOGgq70bY5qU4/8d+rp9piHY53+HQ21ex85x9J2cD075uRAm7D5qUSi20OPtt8bpERXiISuA2Ayc9qY1lcNbjxJYvr2FFVqdY7SpIqc6vaz4vhQFmnS+ML3nylSOZCtvSETF7BePZOG8JxEmAh0u7z9B07mu+LfuLNrhLnPn3h2okCkj77n3e/mEfu/nUKl8A/rd8LQdJdM5r3j2bbzQqd81D9luow1rMbMl5Pmp2ufp586Oo5g5f62Rv+E3q7pcK6qYOSbO44WWo/jrzhZUTl2LSct3YdoCmeJRj7G/SxINYbQjgpqH61CTqu0tu3DX1DqMTdMZl2kYd0iUhc/4GEKBmv7QHcXWXbtsgWLmXmtKjBpfjZlMYXE5+HLMw2zPG3sw7eUIFq3Yj62dBzGtNgJJwqqENBE3nDK6UOMSNTzj2H0ezy6vx8TaLkM0adikiRIdb6PyqTDTfXwEIGmzt16jv5oYqPho/Tc/LyGECR92xrXGfh8xL6EODwcez9l3Y+jvPDInc9oAbYA2kGADWQsTpehoFLxNSmhQuQnUspYqCaa6469yIqjzk0ZMOA50X1divgrVR91pV/uMrapDtSnIeTaSU57DiotqioVM+xhC37nPMVNFRignXG+vVp7KHeE4+rkUJqwpMABceTvsZJie/apddpu/Q1e7zs/h6rTXFAxslhoze9/1z9134xVfMyDD92+CKKPaxq2bZZF5ZPNDUlbc+A+/r8fsjZ2uL1dJiCmrdYTJQZG8fn9hYuuWTbhj/tvhVsMwnBU9gWCWTskHEdRMr8PY6fW40w5/z7JMr/Mp/6wzmr7gbYfpNDqOqvd4svfnjakQFdLP6eqOerLzQxzz6+epGJpaWlC5Si0Vak7BMHNM1KPy2V2YWWtGHlSufg/Pv3UeTZJnwpXQ0a9uf9tx25vJZ+yft2HSw2tR/ZqWPDLZDyZjBRjJu+E/TcQlTKhyJInmmq2YudfKc5LgXEseFJ88Fy4n/xr++qzkUDlvChNSdnfMJUzoIoWxBKxXIFDtsbfX8MILm3DP7Abc8+xBNAjbY5fR8OZRPFvbgDtnpEqSGiBMeKeL2PX55OAwWGiihSv6I1Fo8I0sMcoPM+Z+tsJ97s8FeZAHbYA2QBsohg1QmMiFU6ScVNuhdaZRiDO96JyZuNLIjyD1qfN1R992pFXeCceBTubgpnSc7Tbpd+v9yj6N37Z9ga4bWpJNiTSQqR0JbdPL6ranVTiOfg6FiXZrCoyv62/tjN7Ar/VxfO4K2m6ax259ct0TbXLZPua0NwthQuXkUDkttG3q3Bluji5hSe8PX+dVyMj0i1emaajlQEWA+PGMTUbOCXktYsXU59tcYkWm9SReZ66gEC4CQhy5Otz5rP9KHYllp/pHfA3Pr7AEiWNdhkDhv5xjqnJSH5cVRsL1MVlZmQsTcvfcECSOncWi+elHFPiyDRAmfM/VHFk5Ls5+QhJIzzmuct57G5M8UyVcx0/FYPexKwbJGXLnw9Zym8nK7TZ53JlEGPMVJrxlGnlPtOkp8v7h7fjrB+7xbHih3lkR5c09mGisOqMJEyrZpsuZ15x8b2SRMS3GOa4EoHtmrMWd07eiulaEoF14/OWj+Ouuo3j+5R24J0lf95zyESZSRC4k55MqYiKZ+JDsmJur1xb4nnxoA7QB2gBtoNg2QGEiF06fEho0EcBeReLyTRhpGPSpAOr8pMLEOSc/wsWox7l2HNpAYULLdRA8lcNvakY3ZCWPLksPEMd+zHPWMqeSbDLJVI6+E+csBzJXwoQzLcZO3ilLraqnnchTn66iJQyV8dCnt1hjnRjhkYEwYef/uI31PnVQZHBstNRZZPIlrEQJ2arrJeeEJMSUZ7IlRNX5GW8Np6cef2hL/Q/UcDzF2VOJ/LzOYVrvr5nLRmrRAztbdmGs15nt6kLN7E2Y+UbIu+9+bUhYJjJ1X/15ZiZMNDRuc/fr0NuY9HA9avZqfTpxFoueasBDjWdtG/Bvg9b2LIQJ4y55OgJTQkSC1o5TMch0nLFT61HTolZqsUSsZE5492ksWlSXMoogueOt2tGNmY840QDGCh3epW69eSy6L6KpU64/i0XL9ydGDEkkx4xN+I2dM0LVpW8HjCgLY6y6z2Lxcy1mokvhZU2vkJwsE1dYK5ZIREtnshVZfIQJJZYETNdIzieFMOGKINH7FcOeFIJISvv0+yxyX/jPN1mRFW2ANkAbyMoGshYmmPxSi4DQhIkx2lQDuXfvStIYSpjohi1uYAiHDqgVNEQ4+Ayvd102RIBAYeIJZwpEQvJLtcSommrSdAWLtunTHTRB4HIUY55QOTIAJCS/vG2twKEnewwjTOjJMgOcWDuRaMB0jSei6LKWQVX5PJyEoUNoa9H75NTxl0+sqBBduNBXHdHGMQzfgbPXXMuDirBz6LRn6kcuBDCWkZfIiXR/rPuJEumWkfH5x6yVFFLmAxhAw6at+MnDDdkJBOofbPdF/HV5Pe783VYs7tCdIcuZ9aya0PTaLtzjdeRVWam2772H6ul1yE0kRrrCxDW8sEG4eUQIiS54oQF3TPfkVDi4H5WS62FTSHEiC2HCyLXgvfufjKXUFbDSxs439mDiw/WJokrnQVQvf8+TpNIc76a2/Zg2I9wyq8kdb8d+JCpm4poe7OnuwR/m1LuXK+2+7ETnJOSxkOVNd7mWFd0josl8a9w69qPysT1YnWwllWPdeHzRWkx6wVqhRRMm9py6hudr63HPn/eHWlJW+ps4XUgEhrrEXBMpRAtj+kngNBB/EcT+PsnGvpLZEo9l9UPbHh9yJEfaAG2ANpDUBrIWJpj8MkCYeKLbnsLhWnZTnMuQwsSYJ85j/XV9aoUZLSBCh5qGEOw4d8NZIcJvuVDNcbemaqilPU/Z0zm0c3THPWG5ULUUp3L+kwgTumBjldMVkCTy1yesFT8SEkyqejTGhsgQRZeKooh/Yy4Xqk2tOHXuc/xW+KscIAJS9eVbGJEYxgSQUMJEN/7hmBJlZCnXIVy5fhunbli5Orw5KSgq5EVUyEU0Rjo/GoslSuzs7MGza7binofrcE+A42j341g3Fj1jigiPt2l3+DP9Z3joXVTPqMOdfwxw9Iy7tHWY9qq7LvuOvB5lkKQNRh9XbcJdv0tzOc8kZQoTcRorlr+HrR94kl92R9F0TGuz4ajW4Y7p27D4oOdcqeODLtQ8UoeJL3hWIpGlJh8OKU5k4zgaUzMSpzqoqQSulSh8pjWYySEH0PDyNiNSovpV//wQth1Jn7uvoWHvftQ8JiuIyLh4V9ZwRAb9urDCxJ6uCP5glL0WlRssgUCSZVp1Bud30KMKBtD05n5Mm92AaXr0ysGDeGhGPaZt6HIvJ3oqiobGHfjNI/WY9rI2li5hQvpliVSyosiu5KyMaJaAXBbGsYTx0KawpLBfnasZERF8bbJ2uMpJp06em/RHNLn6fweQC7nQBmgDmdhA1sJELhyDYV+GEho0h9bokzfppXJO1flJp3Io5/s8VvTexoByuCX64uZtvLTLjAZIJkxIG+TufdvnQ7hlRRaIIz5w/Uus0CMkmj5H183v3OfcuIWXXvvY7UyuvoyXrmpliUDid94TSYSJJ7rxD+/ecvrz7Xc4dED1Vd86eTqM6SSKnXdr57/4Dn1RLYGnoTB4/tjjcxq/Pay3YQh9vdewSEWS2Od1IxXffzjwJU7d1MQjP77eNvO9266KzCPsF2exRIk9XUdRPWMtKp99A3/tUGH3Qf/wLuLZZxrwG1mCMkfTN56v3ZTSITWTGiaGuze8uA0PbdWcvyAn55038JtHGvDQmnfRkOwud9D1yfZ3HMS0x+px18NOXgHHiXecPIkwmbTqqMeJdXNuatyBaVtOY6envp2v7UDlqohrVQ1fu8pGmDgVQc0jDXj8LXebfOvxtM8+59DbqJwdILz4XXPwDfzmn7aiZpPXuU/ehtDChE+dO1/djrukzoTlRfU6LWHixHksekqWgX0Dzx/yEZMk4ebLIkLswPNastCdbV2Jy8a+uQcVPuKCcW6qz1KBplD4R2YoLulGB6nruLU/Hz72yGO0D9oAbYA2UDgboDBRZKdo2Isy5FdSTjbtSRe3wr0O+w/n/6heBz2nRNjreF7h/qGRNVkXywayEWNCtTmV+JGV6EW7CTUGFC4YPUIboA3QBvJqAxQm6FjTsaYNjGob4A9SOiW0AdpA9jZg5pRIzDVRALbWdCpzuk4B6uMP87z+MM/eFmkDZEgboA0MTxugMEGndFQ7pYwwCBdVMJI58Z/X8PznxXHjuNEGaAO0AdoAbYA2QBsYOTZAYYLCBIUJ2sCotgH+Qxs5/9A4lhxL2gBtgDZAG6AN0AZoA8PTBihM0Ckd1U7pSI4EYN/CRYPwn9fw/OfFceO40QZoA7QB2gBtgDZAGxg5NkBhgsIEhQnawKi2Af5DGzn/0DiWHEvaAG2ANkAboA3QBmgDw9MGKEzQKR3VTimjCsJFFYxkTvznNTz/eXHcOG60AdoAbYA2QBugDdAGRo4NUJigMEFhgjYwqm1g+TufMsM6s+zTBmgDtAHaAG2ANkAboA3QBopoAxQm6JSOaqd0JEcCsG/hokH+btlHoDgxctR23jnhWNIGaAO0AdoAbYA2QBsYfjZAYYLCBIUJ2gBtgDZAG6AN0AZoA7QB2gBtgDZAG6ANFM8GeFc13F1VciIn2gBtgDZAG6AN0AZoA7QB2gBtgDZAG6AN5MEGCDUPUKm0FU9pI3uypw3QBmgDtAHaAG2ANkAboA3QBmgDw8sGKExQmKAN0AZoA7QB2gBtgDZAG6AN0AZoA7QB2gBtoGg2ULSKqWANLwWL48Xxog3QBmgDtAHaAG2ANkAboA3QBmgDtIF82ACFCapitAHaAG2ANkAboA3QBmgDtAHaAG2ANkAboA0UzQaKVnE+VBaWSfWONkAboA3QBmgDtAHaAG2ANkAboA3QBmgDw8sGKExQFaMN0AZoA7QB2gBtgDZAG6AN0AZoA7QB2gBtoGg2ULSKqWANLwWL48Xxog3QBmgDtAHaAG2ANkAboA3QBmgDtIF82AD4IAESIAESIAESIAESIAESIAESIAESIIEiERhTpHpZLQmQAAmQAAmQAAmQAAmQAAmQAAmQAAmAwgSNgARIgARIgARIgARIgARIgARIgARIoGgEKEwUDT0rJgESIAESIAESIAESIAESIAESIAESoDBBGyABEiABEiABEiABEiABEiABEiABEigaAQoTRUPPikmABEiABEiABEiABEiABEiABEiABChM0AZIgARIgARIgARIgARIgARIgARIgASKRoDCRNHQs2ISIAESIAESIAESIAESIAESIAESIAEKE7QBEiABEiABEiABEiABEiABEiABEiCBohGgMFE09KyYBEiABEiABEiABEiABEiABEiABEiAwgRtgARIgARIgARIgARIgARIgARIgARIoGgEKEwUDT0rJgESIAESIAESIAESIAESIAESIAESoDBBGyABEiABEiABEiABEiABEiABEiABEigaAQoTRUPPikmABEiABEiABEiABEiABEiABEiABChM0AZIgARIgARIgARIgARIgARIgARIgASKRoDCRNHQs2ISIAESIAESIAESIAESIAESIAESIIHCCRPdH2PMEz146Xq+oF/H6qUnsajzZr4qYLkkQAIkQAIkQAIkQAIkQAIkQAIkQAI5JjByhIlPzuHXT5zEitPZE+rt7UVDQ0P2BbGEQAJkHIiGB0iABEiABEiABEiABEiABEhgVBEYMcLElbYejFn4MQ59m5vx27BhQ27Eievn8Y95ihQ59FI3xrx0JTcdLkIpOWNchLazShIgARIgARIgARIgARIgARIggdwQyIMwcQMvrezGmCfSeK48j+zc65t4fW03vrfpMm7lhotRSk4cZwoTSUckJ4yT1sCDJEACJEACJEACJEACJEACJEACpUwgD8JEQHfzmWMifglzn+jG3GO3AyrPfHfWjjOFiZTws2acsgaeQAIkQAIkQAIkQAIkQAIkQAIkUKoERoYw0f0xvvfEabweyw/mzBxn/8iRf2y7YTfSmH6iRZbox8yTruAv2nGJQvlLNwBD5PFGpHyMQ3bJPnV7pnx46x7zhH69FGTWLfUZU0ZUO1R0i6cNRrvs+ph5posAACAASURBVNN/kRnj9OvhFSRAAiRAAiRAAiRAAiRAAiRAAqVFII/CxA3sWNODv3xgrZLhipi4ja6/ncbcA46Tng2Wrh0nMWbtRQzYhQyia1cP/rHlM3tPti8ydpwDIiZMZ18TA4zzuuGIE6Yw4Lw3BQldAPDPMWGJGUpAMDp+BX+xhQklWmh1Q4kP+qopjihi16nauLIHY7TyTZFDvzYz2hkzzqw6XkUCJEACJEACJEACJEACJEACJFACBPInTHx7GYuMO/xDZjddwgRgiAmrL2hignKYvZEA3vduhxq4jhWLu/FI+5cunLe6zuB7C8+gLe7andWb+fPno6OjI70y/IQJy8G3HX6rRNPBt/rnd52nZj9hwtiniQaeS6xoCy9DOcvibwsYljBhvzdLMgUVrwjhI6IkVBxuR0aMwxXNs0iABEiABEiABEiABEiABEiABEqQQP6EidN9KNenV3iECXiPYwi3bt7EQCzV05Pe0lgmtBc7vMEX30axfnmiYJHpGMjdfHmm/fARGAwBwk88cDFSEQt+IoLZikRhIrVAkHiN0yOXMKJN5XDOANznqCOp61VnJttmzDhZoTxGAiRAAiRAAiRAAiRAAiRAAiRQ0gTyJkz07T3pCvc38yJod9q/vYK/LOzGzHetqR4ZYkqoRytnoL0XYxb3oSvLJUSzcph9hAkz6sAbCaLea4xUFIOV38EbYZEgMgREYjhIvFERzhF55RYdTLHBW6f7HHV99sJEVoxVM7glARIgARIgARIgARIgARIgARIYdgTyJEyY0yu8+RHGPKE73UNmUkXXdI50+UWxfmmSqIj4ZSxa2I1FXZmv1pG1w+wjTBjOvV/ERJLum4KAnoPCygvhmmrhLyboxSaIGdpBt+jgX5b7HHVxdsJE1oxVM7glARIgARIgARIgARIgARIgARIYdgTyIkzc6v4Y5U94ple4pilYnHplukcP1l/OkFvQNI5bNzFw+TraPriARc92Y8yLl+CZABKqwpw4zD7CREL0SKjWJAoRiSJD8ogIqcZfWJAj3msLI0zkhHFIfjyNBEiABEiABEiABEiABEiABEig9AjkQZgwHdzvbbrsFgP8hAkrcWX5K9fSJjPwyWXs2HISY57swdymM5i58iR+/Ww3vmdNe/jev57Er1eexqJNvYkiSYjacucw+0UTWCKAd4nO6+fxF7WcqP7aaG9iOb4igzWdY4w3ksJ+71+3Ob1Ez2eRf2Eid4xDDChPIQESIAESIAESIAESIAESIAESKEkCuRcmYlewek0vXvJGQfgKE0Bf2xms6PJmrkzNSpxyQ3xY2ou5TR9jddsltJ2K4kpsELdcOSV8ppWkKL63tzezRJcB5ZoCgplDQp/eYooBKreEbDVhQAkMltAy5gn3NA6zKlM8kGOua63EleZ+s3xvroiEuhOmluRXmMg14wD03E0CJEACJEACJEACJEACJEACJFDiBHIvTAR1OECYCDo9d/uHcOiVHsw98FnuimRJJEACJEACJEACJEACJEACJEACJEACOSFQOGEiJ81lISRAAiRAAiRAAiRAAiRAAiRAAiRAAiOJAIWJkTSa7AsJkAAJkAAJkAAJkAAJkAAJkAAJDDMCFCaG2YCxuSRAAiRAAiRAAiRAAiRAAiRAAiQwkghQmBhJo8m+kAAJkAAJkAAJkAAJkAAJkAAJkMAwI0BhYpgNGJtLAiRAAiRAAiRAAiRAAiRAAiRAAiOJAIWJkTSa7AsJkAAJkAAJkAAJkAAJkAAJkAAJDDMCFCaG2YCxuSRAAiRAAiRAAiRAAiRAAiRAAiQwkghQmBhJo8m+kAAJkAAJkAAJkAAJkAAJkAAJkMAwI0BhYpgNGJtLAiRAAiRAAiRAAiRAAiRAAiRAAiOJAIWJkTSa7AsJkAAJkAAJkAAJkAAJkAAJkAAJDDMCFCaG2YCxuSRAAiRAAiRAAiRAAiRAAiRAAiQwkghQmBhJo8m+kAAJkAAJkAAJkAAJkAAJkAAJkMAwI0BhYpgNGJtLAiRAAiRAAiRAAiRAAiRAAiRAAiOJAIWJkTSa7AsJkAAJkAAJkAAJkAAJkAAJkAAJDDMCFCaG2YCxuSRAAiRAAiRAAiRAAiRAAiRAAiQwkghQmBhJo8m+kAAJkAAJkAAJkAAJkAAJkAAJkMAwI0BhYpgNGJtLAiRAAiRAAiRAAiRAAiRAAiRAAiOJAIWJkTSaWfYl+tZSTK28Fwv3xYBYO2qn3IcJy48gnmW5vJwERh+BKDqWV2Hy8vaR+/kZiqJz3VxMnliGivJ7Ub2kGX2DpT3S0Y6VqK6ci9arpd1Oto4ESIAESIAESIAERhsBChOjbcST9fdqM2aXl6FiwX7EEEPbAnE45qJ1INlFPEYCJGAQuHoEdY9VYt7uqPG2d8OkEfz5ke+HsaiYWIP1rT3oPdmC9TPuRUVVI/qGSskeYohsmOUIRAP7sXB8GcZRcC2lQWJbSIAESIAESIAESAAUJkaoEUR3z0KFiAzyXBUJ6GUUzbOsc8pXIoI+NE2T90vREQdi+xYY1xsRFAEljJjdSpQxOIyYXrEjWRCIrEr1+fEW3o+mqjLDOe+XQ731eLC8DLMtocJ79rB+H23B7PJJWH9S60U8gtpJY7HscGnFWPWuE4GoCk0XzLZ632s94EsSIAESIAESIAESIIEiEaAwUSTw+a42M2ECiKwZi4rysag7AUA560uKGI6u2pBvwaBQ9fgOfBQdq2ahek1k5Ib9+/a7tHeGEyYccU8ECPNzNwVN56RvPVg/SUUglXZf026dIUzMQrNrSoTJwivE2N9Fs5phxpKkXVvCBWmVeaER1eVleHBdj1mO931C6dxBAiRAAiRAAiRAAiRQaAIUJgpNvED12T/c04qYcKIkpu+Qe749WD+lElPnt8C4A1ygtruqKZRgUKh6rM7FL+xH7Zwq645zHJFVycP+47EYYgPW82ofIoePoFM9WxtRt2a1/ax9sgZTp02xn2YOAOUsu+jyTRICmQgTONeIqeVlmLqtzyi5c4UTgZSkquIdOr7SiaxSEVaht+EiJuzvomIJE4ihdX4ZKsYvRacRzBFD65+qsHDDkZwJJcUbQNZMAiRAAiRAAiRAAiODAIWJZOOY1Y/2GjRfSlZ4fo/ZzkCawoQ4VtMra7CwtWhShBtMoQSDQtWjehc/gmUy193I5wEoh7Z6u5t737Yp6TuOE+/D/ePVFB1nW3tcVZ5iG+9HZPdmLHtsCqY+IBE0Vhnj78PUaXOxbHsLei+FD9e3HXxVTujtLLTm6hZ7ii77HbbbHTgVSq5yR0zYURKWEx7btxjVT25GJOZXQ4H3DfWjeY6MZ5UV0QEgq++4ssQcE5X16PXkmLC/i4omTDiC6zKZozZMHvHjKzG5vAzj5jSj38N0mHSBzSQBEiABEiABEiCB0AQoTCRDldWPdm+Yc7KKcn/MdgbSFSZy35TsSsxCMLAdy9COsOPE286469rwY2pk/5fVCiZWYX2nv1fqnutu5SeYVI9ejZgxjhMrreiHGixcYUZGbNndbkVMRNB31YqkiMXQf3gzFlbda4gJE6oWYEureTwexrGJ9aB5SRUmuPpsMalagLoVCzC90ixbpvtMfSbcKgyZj4PkPSnew253WsKETIeqxOwl+4sXZeSLTKJyKg27mG1EQ/meFH6n/d04FuMMESx4VQ77u6iIwgTi7aiVz8Nx/89i+I4X9sy+bVXGmE3mNK/CgmdtJEACJEACJEACBSdAYSIZ8hOb7XB4PTQ+8LXttIkztxKdYZzBZPVnccx2BihMOHf8/RzutPaFFCaszP+2uDF+ln/0jDXXXYX9928XJ2QS1uvKRFgbGOpH6zNTME7usE5ZjObe9Byw+Ml6VKsoC2ulhf5BwI7Y0Jzz+KUjqPu9FUlRuRQdOY5qiO61EreOXz0shYmwQ1bI8+InVht333O2aoYtTKT+nrO/i4olTAxGUDdnNSIlvpSprz0M9ZkJVcsrM/te8C2UO0mABEiABEiABEig9AhQmMjhmMQ7lmpOcCHv9kZQm5aDnSoyQB0P6YjnkGFCUVlETCSUlXSHYpj9uPVuMO9MV0uegXNm4r1xc1p85rNrURIiYl1oxuw5K9F2Ls1wc3G8pphJS6s3RBBLUxCLH1+NqZYoMXl5O6La9SpqwMw5ogG0pwWUoWJWbkPN8+HIai33f2nbmbL93GxDT5/xb1WO9lp2Vj4JtcfTtK2AFtjiUYiktPkYz9BlXmjB05XWWMpSpgH9KeXdMqVDVneRz1mONcBS7jbbRgIkQAIkQAIkMMoIUJjI4YDbP5blR2RNcwFDuZVTnRtnyr7TX05hIm3zGGw3ckc4ifYAU6gYC79lV/t3zMLsVS1IM8DBadZgBLWG4zUWs7f1pb+qx+AR1MrKEeVlmLwqcVUQM3ljwJKX9rX+fXMamd4rc2WYMlT4ijnplRX67BEsTMQPLzUiaSrmtyC9OJpgevZ33bTUzr59bg4d6zBlynQqJbiNm7IydWRPmjbg93kOJpbNEUdYci3Pmk2RvJYESIAESIAESIAESoxASQgTn33zHRo+/QaP9N3ChJ6vUNE9iP/c8xV+33cL9de/xvWvvysxbP7NscPeC353K4It2ioMxlQTPWmhnaPAWalBTUfRkyROqPQeX4y2Yt+is52F7CMZ/EdN7VXiTnb12HPCN1hLE0rxyoEfvwBtA6q+XGxjaFtgTqnwExXC1KCiO/wT7DmJHYPu/Mda55pRQjl0OlWURoU2fSRMX3J9Trh2OIy8y2Tmuj2ZlWetSFFehlwmfrTZhBCPwogI6fYtaZmDfWi2pjUZuVBWuKOAAuuyv2vCCbxBn4nA8rM4oD5n45YfSV98zKJeXkoCJEACJEACJEAChSJQdGFi06dfY+xJU4wQQcLv+avuQay//nWhmGRcj/1jXYSJFUcyLicXF9o/3KUtgQ6e41TJHfNC/tAO3UfbWchOMLDrG4qht3Ul5k25z7yLXF6GCZU1WLZ7M54WViFC0+2yvC+slTYqyuei1SNAyDQfI/+DWoXDe20G71WZFZWrEckkQt9ur7ZKg6sdPVhvRFMkWWo0th8LDW65WkFDxBbLMQy0W1cj8/bG/jwnbYfzGSpJYcIen6XI3YIUUbTOMcdo3JrU6Unt76IcildBZUYP12O6JJ0Vm5RcKZ25VlaVgJlhLphMrTUv45hpY3gdCZAACZAACZAACeSeQFGFiT/3x/ErjyiR7P2ii7dzTyBnJWoOVVIxIGcVJi3I/uGetC2OUzUqhAlJEDnfXFVi3ANV1goXSzFbjy7JQpgwk1eWwf+upjhzZh6I3ISAq/DusRnfCY/tW2A6cEEh/vF2LDNEhwVoC5wD0I/mGtMRrO1MapIhDzo2WWxHfyQIE3bemyXtubvTPhRBrZWTZPbe1I6//V2UrjAxeATr1yVOLxJD8pYZ623GMms1mopyWSGkJT9LbEZbMNv4TBR6mpvz/yWXkS8hP5Q8jQRIgARIgARIgATyTqBowsTzV772jY7wi5jQ9y2/nMmt4bxzlJ/KaJ5l3akrL0NCskBPE2ynx/iR61xn3OkLuS9ZhIP9w13KCrzj6ziVoYQJO3ohs/YafUvXObHrzD5iQgkHDy7xhHYPxdC5YpLppGcqTKSMPgBwqRmzxaEbPwutVz0Gke7b3nozIV6IOf7+RcfRscQcx0Ch5Fwjpor9eJYw9ZanbDk3QoKK0gjIa+GtPI/vVb+CPz9SufO5D+Ok57G5vkWrfB2pvo98Lw7aqewi5Aoy9ndRmp998/M6FlM3JIoTdpmTZmHhDLWEbRkmzKhHZ7afraB+y377+yiXESjJKnSOqamCD+rTxJzDfEUCJEACJEACJEACw5pAUYSJzptDKSMlRIwo//AmKj68ifITavslKk58ifbYNyUI3XGoxAFP5aTZTk9IEcJPsMhemFBhyeKg1vgvaamTtn+UD0dhog9N06TdAXc6laPvMw1DRxD0Woke41JM1ZBklzKW/jkdgkpP3K+cFLXUaOIZqfYoHsHjHvZue+8GU9QJE9afqlWAY5PJ7FvKsZ3TTD9DKRxl+zMaKOxJKxxxL1V7Hac2089PgO0GQnVEk5RtCywj8YCy9YrxKxHRVnBJPNPcY49TCt6u61US2XL/xKp2mcbYj8X9c+rRcS4wrMdVdFZvTqy2poAFC6W23WRql0H21rnSFE9D5PXIqo+8mARIgARIgARIgASKQKAowsQfz99C+YkvzWdEbWMoj8RQ/oF6foHy41+g7PgNc9t1A2XGcwD/fOZmEVClqtJxqMTxTBXWnvWP1xQ5IVw/3IN+6GpOYKDDrnd7WAsTanwCHAqtb2mHStvREpOQMmu+LLNpRNaMxezd/TrdNF47Yd2ZO5wOj84A51IJDqnED9vWAu0sja7Z00dS5zyx683UAUzhKNuf0aT9UhxD5BzQbMxPaEy9L11hIoI6Y8pFutclGy81hagMFSGnh9jjlIK3U2sckTXmkrsVlfXo9bFPu8xpK9FxqYBRdMctcSBJpJJtN5naZZC9XWrGdCkzRQSTw5GvSIAESIAESIAESGD4ECi4MHFj6DtDYCg/LkLDgPH67vcHUPb+AO4+9rmzPfY57j76Gcpk2xk1Xv9Stp1R/PLIp7ga/7a0KNvJycy7oSkdxsEYYgPZPeM+P9gVFPuHu/yQDfqh63KUViLIQVVlYiiedZtjsTSdCLuNAYKC3bhUL1SEwBRsOZN4rp1IsrwMqRxx79VqJY7QyzHKlA7DaalE3Yk0eRiVqzvhWTic9lz5IK6qjrEpk6IqASPQzrzAkr23xzs4kiPZ5bk8ZjuYQZ8fqczmmKvknzntAWoNO0uWIyTN+k5aU4jKx2LZ4XC2a38XhRQm4idWY7LR7kmo7fSvI90y0+xl4OnFqtdokP3ZCPrMBjY7rweam5tx/PhxVx0DAwPYuHEjZKs/5Dw5nw8SIAESIAESIAES8BIouDDx7hdfGyKDITZYQoMSG0Rw+OV76nkdv3zvOn55WJ7XcNeha/jlIdleNZ5tn5VYIkz7R6MIE8V3quwf0MmECRUaLOckuQPoNZqCvre5Zv9j3A5Br1yM5pNW2PdQHP3H683cD4YzlETI8ev4wH4sNO5Kh4iW0K5XUzoqKlciMqgdCPVSiQZZCBOpuNpCW+q59J0rTDEuJ1M57PwFWfQtFMPUJ4URJuzpLqV4FzvVGKdG4DlD2Z111z6JMKpfaH8XhREmBiOorbTsKUlERlpl6o3J8rVdbzFWXbKjibL/LswSg+vyMWPGYMKECa59L774ImS/bPWHnCf7+SABEiABEiABEiABL4GC/0LYdf2WKTIYYsNVU2x4V7ZXcVfHFdz17lX8QrYdV/CL9su4q+OyuW2/jF8cvGQ+D/Rj2+USm85h5yiQH9XFd6rsH9BJhAn7TrfkPEh2V9hrNYV8n0vnSqZRGCtjmI6PO3S+Ek//ycz/EP7OfxyRVVbSzKCVLYJYaW1JP9+EchCTLOMZVK/aP3TEupvu7+TYDnfKfqlIlDLkJPmjCpUvDxHBo/pSxG1klay0UqKfn1x+diQ4ZO8sK7+Cf96HoGGwv4tSCRPaZyKVYBe6zKBGZbg/jFiVYdGpLytRYSIoYkJECUZMpB5WnkECJEACJEACJGASKLgw8dq1r3CXLjJoYsMvDvTj5+/0w9xexM/fuYifv30BP3/b2r51AT976xP8/K1P0NT/ZWmNoe1QidM7DJyqIXeyzrTzKhSKfo6dKwzF0Nu6EvMqVSb/ezH5sZVo7Y1BCTWpEpfaXY+14+kMoiXs69UqHeVlmLwqceUB+zyfFypKYV5rpgn/nPwDrQkrPsbRudx0uFOysMcnRI4Fn34k7LKjePwFk4Tzi7lDS9CYcupWMdppi0+po15SNk+z1YpZzWktxRlKRNCW8pVVa5ovJW9RqDKTF5HRUSVM5HSVk7AtsT9rw+CzEbZPPI8ESIAESIAESIAELAIFFyaODtzGz98SsUGJDBfwszZTbPhZ23n8vO0T/Gz/efP55jlj+9M3+/CzN8/hp/tk24efvnEWBz/9qqQGMbZvgbXcpClMREqqdYmNkfaOU1MXxi9FwFTuxAsLvadQP8ZtoWYs6k6k0cloO2pX7Eem8oCT2yK9ZJi2vVU1IrMUmiqBpk8OiYEWzDNsYy5a3VPEE8DY+TVyNJXBdjhLdWqRRqB3g5WgsaoRfSGnNWiXF+ClSsyZZQTXpf142ppeEUY08HbMHtOgiAmJlJivhMJK1B73zyuhl5uyTP3knL1WkUqpV13KWZV6QSr55fjVKPX/L3qz+ZoESIAESIAESIAEwhAouDDxzXff4e6286bIsK/P2IrgIGKD6/m3j/HTv32Mn7SecT9bTuMnLacR+6a0kl/aP5TFoQv6AR5mRApxjn73U+7Wb+gpRK2Z1VEgYcLO+SAOdkGdTJkOYjm45ZV4el9ImcFeCSQ9QUMfBJVzY5xnLr8SG8YtP4KkLqJtR+mF9utt8L7u31FjCnwl/hmKH1+ZMkGjt2+Ff6+WMk1TbNMaGj/TiHkT1dSncKKBdrnx0v5u9BvTCy14eooZnVNRXonaznASX9IyvQ3I2XvFM/WKMTmrUi9IReX5cdTP42sSIAESIAESIAESGIYECi5MCKOFJ67hpyI4GCLDGfzkdVNs+PHrH+Enr3+EH++1tnt68eO9vfixbPf04kev9eDHe3rwx2MhnbcCDoiaBmDkLSjlH47RdixTdz9FRJm0Ep1pJ18sINgCCBP9u+dighEhMDY3eRLSxSPRGvaYhHf+nKiXSjzdmsFnwo6MqMSyA+Z8jtiJelQbLKrQdC5JRwZ7sP73Vn6FOemF9icpFSpUPuxSlMnKytex6IGlliiR/hScfLUpqFw15Sft/B8y5Wn3YrufFeOnoC5EJINfO3xFhKEoOtfVWJ+7MlRMnIumM0llMFfRvmW6zsjHGxWBUhxhQol2OUkymw88LJMESIAESIAESIAEsiBQFGHi4y/jhsAgIoMhNrzWgx/tPmU9T5rbXSfxI3k2dzvb5m78cOeH6B7I7zSOyMYpmDotvedk+66i/Miu9L1+SzpTBLIYVN9LLUdjqpETIbs7oL7l52tnHoWJ+KUjWD9DhZAX2clU0Qch5tc7qOOIrJliT8mZMKMenZfCO3dSTv9uldBQ2YRsU0RhXG1HrbrLndGqIk4PvK9sYaIUk7FePYItj6nolrGYuuYIYgWNrvHSSv1eElYaYqknKibZlbGTzVoUQxnGTVmM1gvJrkh+TBcR+uP9iGxfimrt+3LC/Eb0hguUsCuypzKNX4lIocbAztmR5dQYuxfpvFBTr8qwcF+asNKphueSAAmQAAmQAAmQQJEIFEWYkL5uPvuZITKI8PDDHR8ar3+444Tx+u9fjUBeG9tXI/j7Vz7AD1+J4O+3f4B1vdfzjsp2jow7x7rDlt3roiTIG+xHZPdKTNccAcNRkTugIcOm8w48WQU5FibiV/vQuXs1FlY5gkRF+b2YvjFSdCczfnw1nt6bkIkyGR0AcfTpd7bLyzChagHqdrej90IMsRA6Rf+BlZj9gBn9MKFyLtYf9m9D/FIEzaucu9zjfl+PSKCP5NxdNuwtR5+llMk4U9BK+3A8ir7Dzaidc58tAFVMrAlklHb5+b5AfX5SOfCybO7hzYmfi3VHEM3S8beFCa8NZMPRXgVpLKrXtJi2HmTsQ3HEBmLGM3quB/2ez0Rg+7ztTfY+30KavSJH6rwv+TYplk8CJEACJEACJEAC+SBQNGFCOvO/eq4ZYoMIDn/fdNx4/sDYduEHjer5Pn7Q+D5+sO19rPrwcj4YJJQ5/IWJmHFX0ll5wi2oGHfWryZ0uzR3KMeqPMtM9JdaMNsVLVKGivH3YfaqZkSGC4tkIyR385+sckLjbScq+xUZ+vfOxVRLuDBEholVWLa7J4WQM8yFiXgPmmZpYoTwlH5vj2TtqCcbxtwf60dTlRkFs+ywxyO3K4uidb7K8yDn3ovqJY05+1wkOP4Ta1Dbmsp+7MYFvIiiNXDpX/f3nVsYS4x2SGif/dlJVo7nWJ6FifjhpaYwlnL53gBc3E0CJEACJEACJEACJU6gqMLE27EhPH7yM/xqdzd+8PIx3PnSUfzgpaO4c+tR4/X3t3bizq2duGtHBP966lNc+vq7EsdZOs1zkvM5P6AnVC1F03H/u+Gl03JPS3IlTFjTFu6vrMHCFY1oPdmPeJZ3gj0tLY238X70tjai9skaTJ1yH8YtyHzFELtDsizmA5WY/uRqNB8fodzszmovzjVi+gNTMG9JIzrORYetvcRa55rTOZI5tVdbMK9yFpZtb0dfYBSMxiadl4N9aP7TFNw/Z2Vu7WcoisjuzVj2mEy7q/QR5ZzvPhEhzel5i9E2zL4CgRha50tfxiJYXEpnQHguCZAACZAACZAACZQegaIIE3sGvsH/9dFXqOgeNJ4HY0N4pieKSW+dxd27PsQvXv0Adzd/iH9o+xh/PvUp5Lg697FPblOgCGlHfdtqcP+UuaazEQ26WxqysGKdlkNholhdYL0kUFQCdnLVSqzvLWpLWHkmBE7W40GJ4ijZZWkz6RSvIQESIAESIAESIAE3gYIKE7Gh7zD17C1bZBCx4Vcnv8JfLsVx6qtvzecta6u9X3gxbl8j5084NYgXrn/t7gnfjUwCFCZG5riyVwUlEO+wpgKU8opBBSUyTCob6kfzLImWmITazmEqLg8T1GwmCZAACZAACZBAcQkUTJjovfWtIShUfHgT3uf/2TPoCBNKkNC2ctx7jbz/U//t4tJj7fknQGEi/4xZwyggEEfHEskjUaQlcUcB4Xx0Ua2aM3lVBJQl8kGYZZIACZAACZAACZQKgYIIE5fi3+I/fxhD2fEbKP/gC5Qd/8LaOu93ROM4NTiEU18NubZbrsd9zzfLuYF//SS/S4eWAXzCPgAAIABJREFUykCN2nZQmBi1Q8+O55jAYAS1lZL0dRaaL+W4bBaXewKyhLBM4cjxkry5byhLJAESIAESIAESIIHsCRREmPh/Tn2Bu499bj0/Q5n9WvaZ7//lzJc4OTiEk4PfGMKE+XoIj3wU8z1fL2/rtVvZk2AJpUmAwkRpjgtbRQIkQAIkQAIkQAIkQAIkQAI5IpB3YWJN/yB++d51/PLIp8b2bmvr9/7oF1/j5M1v7Ke8T3a+lKuO9w5+kyMkLKakCFCYKKnhYGNIgARIgARIgARIgARIgARIINcE8ipMxL75Dv/pvWu4690ruKvjirmV1wHv11z4Eie//Np+rjgXc65Jcf3/+PCzXLNheSRAAiRAAiRAAiRAAiRAAiRAAiRAAnkmkFdhou78F/jFgX78/EA/fnHgkrUNfj+p86otSohAIe/Tub5zgMkw82wvLJ4ESIAESIAESIAESIAESIAESIAEckogr8LEuIMX8bO2T/Dztz4xtvI61fvXrw7iZCwO2YY5Xy+vuutqTuGwMBIgARIgARIgARIgARIgARIgARIggfwSyJswsf/aIH76xln8bF9fWtvHT1xH9xe38T+PX03rOlVP/1fMNZFfk2HpJEACJEACJEACJEACJEACJEACJJA7AnkTJpacuo6ftJzBT1pOp7X91b6P0X3jNmSbyfU7+7/IHR2WRAIkQAIkQAIkQAIkQAIkQAIkQAIkkFcCeRMmft12Fj96rQc/3tOLH1vbsO//8cA547qw5+vl/8/O/rwCY+EkQAIkQAIkQAIkQAIkQAIkQAIkQAK5I5A3YeJHzd2Q5w+tbaHe/2pvT+7osCQSIAESIAESIAESIAESIAESIAESIIG8EsiLMHFq4Cv88NUI/v6VD4qy7b8Zzyu00Vn4+1jz6KN4dO37Jd79HLbzyl489eijeGrP5dz32Sr7UWGqPxP45rA/ue8FSyQBEiABEiABEiABEiABEiCBrAnkRZjY138DP2h8Hz9o7NKehXsv9WfzuLznqdw54F1r8OiTe5EH1zabLqZ/rdGPp/DUo2tQ0tJEFu3M6binImwIE16Wl7H3SREqvPtTFZbd8YL2O7um8moSIAESIAESIAESIAESIIERSCA/wsSFz3HnS0fx/a2dxvZOa1uo9/sufJ7VUOXUURshwsT7ax/Fmi7TcV7TlRXevF6cTTtzOu6peukrTJgXSR8KGZlS0H6n4sLjJEACJEACJEACJEACJEACo45AXoSJi1/exvc3HTafG61tAd9L/Zk+zDvWTni9E8av7mZbxzxREIZzZ4fkP4W9VwDDwbT3eZxNbyi/FsLvLss7lcAM7V/TZYX4G+Wbd9hd12nlZcrCuU7q0upI2nfFzmRgtMlzPlxijcn1qT3vW9EC5nVG3XKexi+1IJK8nao/7nGR+jxja0/fUKwBGOOltc0oTLXdiofxjKljO6pmbZtEmDDrUlETnjqg2mRu9egKd7/U9U6d7uPJ+m1e4z5fhCmnLGMMxSbUGK3db4xfQp+tsdau5EsSIAESIAESIAESIAESIAEScBHIizAhNbxy+hoeaD6O/7ihA3+3oaMg2//UdBRvnP/M1cFM3hjOtMux9zqHluigzjGcM80R7NprCBNG3ZZj5prKYTmwjqN3GXv3mBMkDGfQ5cibDqjj8HkdUs2pVu1JKD8TCs41Lh5G2V4H3TkXcLMKK0w8+qinTC/TlPUCYdqZwFcbK9f1RpeUCCBv3P0yDhttssY9oX36tTof67V+bcJhuVbx8NbrHX/zYqNfavyltTIdSbOj9Ppt2ZRWnimWaOKEMT5usc1bp7RM6nVsN6Gj3EECJEACJEACJEACJEACJEACyJswMZzZJjiogeKC5ZT6HVcAfI4FOmsJzq1ViKsMH4dXjnvyEgTWodoVems6qS4R5clgZ9PrnHrfG9W6+uPjBFsigFOn2djkfQrRzqRigEfYMKp0s/b2RbcTv7bpxxNwJ22LXq/ZL8e5N48571U0hyaM2W23xI2kdfn028eepEhXf4xzlHhi9S7BfqWtnnMSQHAHCZAACZAACZAACZAACZDAaCdAYcLHAlwOmHLItCkFzvQC5XSZzqLs9zrT7mkLUpnudHoqD3AI3aH9Pte7HH2zTD9H2a7NcCDVlItHXXfW7XPUCx+n1uCj3Y1Xp/pNd/A919Ver+MtpTk8HdZWe/W7+HbF/s65t27ve/1yeW0cd5XvYe1yvHUhxHyd0FaxGT9OUpkPV6c9Uq+yLS8fT5vkIsNutPHUbFXsMd1+B56vj5tRp1cMcbc1kafTQ74iARIgARIgARIgARIgARIgAUWAwoQioW29DlWgo6ZdY7y0HX7NYdOdOeMk3en0FJBwrnXc5cQGOKYeBzipMOGpNtlbo++ao+s438pxVle7nVJ7r2dKgbHf1U+/63z6qAoM2IZpp3dcvUUlHve2w2yrIT65xsSvD97SPe9d13uOuZx+b9neNilhQrM5T3GJ/XKf4D3ufW+frY+bq432GaZIYog7GivtMF+SAAmQAAmQAAmQAAmQAAmQgJcAhQkvEb8750FOmM+1ssslCujOnHG+19HUCjGcVa/DbzmetvAQ4Jjax83yXG3QqkjvZbBzKeXrK0cYzqynDUZdCf333sH34+G3L1nLQ7YzxTgmOuSJrNU5stWnU3h5JGutcSxQmPD23fs+sU1+kSqu+tPtd8D5qu9G2QHnmNEua/B+YP9cLeMbEiABEiABEiABEiABEiABEmCOCT8bMBwwl5NtOoe6I244YFbY/+U9a5xkl94kiX4OnLFPFyBSJ790poj4OKZSnqu9HnHEr5Nh9vm1XV2nHwsSVORc45g2xcV677TX63hbFSQwEkFD56wakiJiQG+nNTaucfQmv3Rx9GFtTDN5Ck89qY+fTz+leV1rEqf2qGb7Ou5mfa72ee0pYCqQIYy42n4Ze9fuhZl01cd+k/bb53zvGLu4qk6ZW0MUe/Ipl3DlPoPvSIAESIAESIAESIAESIAESMAhwIgJh4X2ynIQ7WUj5ZCzz5zOoDmmhpPmzPHX76Sr1RyMa/T8BUmuMZxMbfqEI0o47XDtk7JcTmluhInkUQDKabecWK29arqHaqMh9Kjj0k5XewOECRW5oq6Trc5PHy1P9IZ2yB431RbXeBhl61MgnDE2x1D10VOi1OfhbZzhGVPfc1RRSqDR+2fnlVAnydbLx79N6jzFXrZOn51ynOPJ+u13vmbvctjoq16G7LQexjHP+eoYtyRAAiRAAiRAAiRAAiRAAiTgIUBhwgOEb0mABLIk4BKesiyLl5MACZAACZAACZAACZAACYx4AhQmRvwQs4MkUEgCZkSHO2qokPWzLhIgARIgARIgARIgARIggeFGgMLEcBsxtpcESpKAM6WHokRJDhAbRQIkQAIkQAIkQAIkQAIlS4DCRMkODRtGAiRAAiRAAiRAAiRAAiRAAiRAAiOfAIWJkT/G7CEJkAAJkAAJkAAJkAAJkAAJkAAJlCwBChMlOzRsGAmQAAmQAAmQAAmQAAmQAAmQAAmMfAIUJkb+GLOHJEACJEACJEACJEACJEACJEACJFCyBChMlOzQsGEkQAIkQAIkQAIkQAIkQAIkQAIkMPIJUJgY+WPMHpIACZAACZAACZAACZAACZAACZBAyRKgMFGyQ8OGkQAJkAAJkAAJkAAJkAAJkAAJkMDIJ0BhYuSPMXtIAiRAAiRAAiRAAiRAAiRAAiRAAiVLgMJEyQ4NG0YCJEACJEACJEACJEACJEACJEACI58AhYmRP8bsIQmQAAmQAAmQAAmQAAmQAAmQAAmULAEKEyU7NGwYCZAACZAACZAACZAACZAACZAACYx8AhQmRv4Ys4ckQAIkQAIkQAIkQAIkQAIkQAIkULIEKEyU7NCwYSRAAiRAAiRAAiRAAiRAAiRAAiQw8glQmBj5Y8wekgAJkAAJkAAJkAAJkAAJkAAJkEDJEqAwUbJDw4aRAAmQAAmQAAmQAAmQAAmQAAmQwMgnQGFi5I8xe0gCJEACJEACJEACJEACJEACJEACJUuAwkTJDg0bRgIkQAIkQAIkQAIkQAIkQAIkQAIjnwCFiZE/xuwhCZAACZAACZAACZAACZAACZAACZQsAQoTJTs0bBgJkAAJkAAJkAAJkAAJkAAJkAAJjHwCFCZG/hizhyRAAiRAAiRAAiRAAiRAAiRAAiRQsgQoTJTs0LBhJEACJEACJEACJEACJEACJEACJDDyCVCYGPljzB6SAAmQAAmQAAmQAAmQAAmQAAmQQMkSoDBRskPDhpEACZAACZAACZAACZAACZAACZDAyCdAYWLkjzF7SAIkQAIkQAIkQAIkQAIkQAIkQAIlS4DCRMkODRtGAiRAAiRAAiRAAiRAAiRAAiRAAiOfAIWJkT/G7CEJjEoCx48fx8DAgN13ed3c3Gy/5wsSIAESIAESIAESIAESIIHSIEBhojTGga0gARLIIQERJebMmWOXKKLEhAkTIPtH6uPc51/j+OVbI7V77FeOCNBOcgSSxRSMwJgnuhH2+eIxR4wuWANZUUkR+NOb1xLsRfZ5H80nY9h1MubdzfchCHz55Zc4efIkWltb8dJLL+HFF180Xh85cgRyjA8SyJQAhYlMyfE6EiCBkiQwGkUJGQj54TXhhXMlOSZsVOkQoJ2UzliwJeEIiCjxfEcUb5+9mfSpxAuKE+G4jtSzRHwVW5mz54otUPgJE2InYjP/cflHEJGCj3AEPvvsM0OMEEFChIgrV64YTxEqXnnlFePYmTNnwhXGs0jAQ4DChAcI35IACQxfAqNVlJARo8M5fO22kC2nnRSSNuvKBQFxHsXRTPWQ8363vd9wNilOpKI1so8rUUK+7+7+/z42/j/69Xjg1pBxTGxn8f7rfqdwn0ZAiRIiSMTjce2I81IEComgoDjhMOGr8AQoTIRnxTNJgARKmMBoFiVkWOhwFsk44xHUzWlE3/HVqF7XU6RGhK+WdpKC1aUWzFveDv+f3CmuHQGH+/fORe3hPrTOWYDWEpkVkY4wIQKGuhNOcWIEGGQGXRBx6n9b3GNPbZRIQvneS/YQu5Frql/pT3baqD+2e/dutLW1peSgxIlcT+u4cOECmpqasH37dsjr4fS4ffs29u7da0SXDKd2F7qtFCYKTZz1kQAJ5IUAhYk8T+U4vhIVy48kd9iutmP9xoj7nHg7lpXPQvPVvAx7gQqNonlWGWbvjrrqi+6ehYpV7ehcXoWmMz1YX1WP3iHXKSX3Jv/ChLCqQlOy34xDMfRur0frJTeevm1TULEq4t6Z83dRtM65F8s6PKHbsSNYNqcR/YihdX6K9qdsk7+9pLysUCfIZ7l8JdykI6iVz+nhRlQvaUd/61zMa/UwKlT7PPWkK0zI5SUhThjffUvRGaRyDcURPdeOLU9WoXqd53tTOnG1GbOrxCadR2TjFEyd5n1u9oylc77x6lIz5s1oRJ+1O/bWUkzf2uP+nvZcMlzfqnHXI2zCCBPSX8nRJLaW7rQO4/9AeRkq0nx6/5+YzOVzmMRm5KShKDrWbUZksLCj9MknnxiREH5ig+xTuSbUcZnW0d7enrNGfv3119i/fz9isRhu3LhhvB4aKr1/uBcvXsSmTZsgW3l8++23ePPNN40IkkgkgoMHD2bF5IsvvsDLL79sl68K6+npMeqV496HiCIyHu+++673UNbvc102hYmsh4QFkAAJlAqB0SxO5MXhNBwY/x9c8qMqPhA1wjn7T7Zgy4IpuL9qAbYc6ENM/60gP64TnKAAi5H6ZjXD7f4HnKvtjqzyb6P5Q3EKmrJOveHvaJrCRATxjpWYvbcfkTWz0OxxtrVmlsTLvNgJTD7+P8xXIhKPIToYRzzah87dKzH9gfswe1UzIh6xSsbR/8d6IjrFPvFIqj0R1I2fhPW9ief1rqvC+pMwxnPhW6YVJretMkzdptw9vTx/e9HPCH4tjkkSe57mOJjBZaQ4kkyYuNqHphmrEbnQjHmrfJzlFEXn43A6woSc630WLylwBLU1zbawEDsXQefhdjRvXImFMyoxYWIl5i1pROvJfsT170wFUb47Pd+HkVVekVfsxSsyqQLMbf/2KlRvV/JGHB1LJhl27j5rZLz7u2UfGbklMu2NfD/+74tzFfmWemzMdib5zMv4D8YQjccRv9CD1o0LMPWBKizc2I6+AuuGMn0jKFpCxAiZviHihBImJGpCIiwyecg0EClLRAh5HDhwwCjLT5gQAWD9+vVYu3at73Pjxo2IRp1fFeK4i3AQdL7sl+N+Dn6YvniFCbnm/PnzRnLQ69evo6WlBbduuROVX716FXv27EF9fb3RLtnKKnJyvvdBYcJLhO9JgARIoIQJjFZxIj8Opwx0DJFOx/mKnWxH5yXzFmBkzVhMqJyLZdtb0GvtSzCNHAkT0bcWYGq6jlK0BbNzEq3h72hm7hwnUCrYjvzZCRA/dwS9Kvx/qA+drX0wflbKOIy/D9VPrkbzYY9wpfU8V8JE78bKYIHjUjOmly9Am9+P+t7NqN4Y0ikZOoLa8rGo9V3ox99etK5m9DK6d1ZGwl1CZUmFiYSzi74jrDAhd8m9z7DX5qeTEdRqwkLseCO27G5H5/E+RHsbMT1VdFAuhIn4ESwbP9eZljPQgnmeKIz89L3wpUqkg0zHkLwRmT7kWikjk2lAqURMW7gNGPfY8SPoU00f6EFHZ78Z1XJiNcalErEy7XAa18kKHPL7KughgoQSJeQcSYopYkUmD7n7r4schw8fxquvvoqzZ8+mNZVDIjYkUkDu6quHEiakDr+HCAsSkZBLYUJN4/j0008TqhTBZ8uWLTh9+rTBV9ordXd0dEBEFe+UlVwJE1999RU+/PBD7Nixw+ivrF6XyYMRE5lQ4zUkQAKjisBoFCfy53CKk7UUHYYWIWHuzo9cccz9HTPN3HIkTGCw3f0DW6si8KVR9yy0OjdLAk/1PWBcn+TutevOtvdOpm+JRd+ZPzuRWOiVqFYRBCfrtZwbbgctCEKuhAmca0T1JP9pNbF9C1KGXIeK2uitx4Pl6nPh7VGehAmZOjSnJe2IItW60I6T2HWA86TKKuQ2G3Ehm2sz7qNfpJkmUBjlyndLEGPje+deTJ5yH8aNvw/3T3QiiSKrxuL+KfpUjkpMSBIx0buhEg/agm4ckVWTktp/KNvPGEx+L/xvmz8xkp9mW4vkqJCy0n3I58v9/zCCWvke0gsS2wgYd/l/usz8R4uYPpUqma3oZef5tURLJBMmvNVnI0yIEKELCr29vS6hwluX33uZ+rFz5068/fbbrsOphAkRAkQUyaUw4WqA9kbECF18kKkWr7/+un2GiBOSU0NEBPXIRpj429/+hrfeegubN2/GunXrsG3bNuzatctogx5VouoS7iJIqSkzItrIuKhIFjmPwoSixS0JkAAJJCEg/0B1BVheS2jcSH3k0+GMvrUarZIzYKAFC7U8EwUVJgD0rpukhSSHGEnDeUwe5hyiFMCaquD90c6ICQ+9oQiaNkSMKInedbO0PBMFFiaMPBFjseywd3K/CGtlHhsyRQS3Q+Hpl89bIx/Ggv1mREjC8fwIE70bJgU6NQlNSLZjhEZM+HW5KMKE3ZAkdh/G2ZRzvIKGXXbqF/HjKzG53BE10FuPyVWNxl15+e7yfp+lLjHxjPePHcPgYHrJDuR8uS7XD8klkUmkg7cdUkYm0zl8hQnv+CURJnB1P+paZcpNDK0LtDwTYWzF24k8vJffVOlMzZBIAHFqM3ns27fP5aBfunTJiCqQKQ9hH+Joy5QM7+ogqYSJZLkawtTtN5XD7zolnBw9etQ+LBEe0nf1kFwaIpL09TlRq+kIEyoqQsZNhIiGhgaIOCFMpH55eFlLFIUSI4S3RI8o0UJEGxEzKEyoEeKWBEiABEYhAVmXXZYyS/b8L+vOGeuxJztHjulJwVKhTHqHdVUEhmPuihqwogv0H2PyoyrJHT1XG+RHm36t6yCAk/V4MJ059r4OmLfQMO/9Hc1SEyaKZSdGkj4/OzD2SSRJ8BxqXRAQewvrLKViL3ccK5Z4VteQSIpyJ+LHHPlMhIkerJ9UhoX7/OaDSKlmmRUSfr2qGZ3ngs4LY3vOOcbnMeBuq3NWiFe+nwsZo9KM+slGXMjm2hAkU5yiCRPG92Cq6CuPiKoLE2daULtmNeqs55bDUcCzr7bVcV5wqRmzx1eidtVi8zMlqwdVVtq5VXIlTNSvewH/+uSi0OKEiBJyvlyX60euxlr+R0pZ6T6S/r/Uvx+9n2Hj8xhkGysRCbSdwn1e1TKhYZNZylKi4lBLnol0H3J3XhxpPVGjOMIy3UHu4Id9iMOvTwdR16USJrq7u13RGuq6sFsRJiTnhUQlHDp0CDdv+i91LE6/OPnK6ZfyJVpC77dioYsX6QgTIkJIhMN7771n1KWXLfVJ3dLOjz76yO6eRLps3brVmIqjxJMPPvjAOC6ijR7JIjtVxITkxZD2S5JUSfiZ6YPJLzMlx+tIgARIoEAEJHmb3A1K9pSkXzI3Ntk5Wd1RurAfdW+pBGpmx+XHre1Yyo8r7w8uOS2XwsRQBLXj00hm2ekvdKT+AelxEAIiJvp31Pj2Of3yc2NIJWEnkpNkeyMiLl9cc9AMlv4/qIVbroQJ0+70qRYxtC0Yi8kbvPOKxSEfi7oT4ccgfngpxo3X7mgmXGoKE9M3tqNj4wJUTyzDuCkLsOVwQJLDhOv9d3Su8ONjiSC64+N97RX7/IQJI2eGz7gEOkWOIxV2zPx7lXpvNg5nRtcmdRSdfts5Ayze9neh3SXL7mUVms4ed3SNcPX7vrSvtb47ZzWjPxZFVBLsqlWBjluv1VaucZUXQ8czNVh/IoZ+KzIidmAp5u12vr8NYc9rJ6nao7dNex1WnMinKCHNyWistX6ol9kIE24b0L/3rNKD/k+qytGPtjX77YSpxm7X2Mr3lff/k31xXl6kK0pII0TAEFFABIp0H5KnQq7Vc0AoBzmsMCKRAjIFQpJmeh+phAmpQ4QRNX1B2pEsUaYc09sqwoRMz5C6GxsbjUgFyePgjfaQa2SqiYpcUA6+Xpa03StWpCNMqL6rsr3ChLz3ThWRfksiTol4kYeIGiKwyEPYeKNgVNkSeSHJSUWUkUiVEydO2AyNi0P+oTAREhRPIwESIIFSJpDPqRxGv31+UEnyS/uHmM9x4zr5UeV1jIJAShlJzxXnsgyz94ZLGmH8+E5aXlBDvPtN5892DKzD4khP3+H82PdeVYrv824nfsKDJL+0x0FY+jjAAISnbU8p4Bljm9SRkqgGTXC4sB8L56xOXGIv7eVsTVu4f417sU13cz32Io7p7qWWQLEYrefS/7GuojC8NuiuN+Q7+Zx5nRv5nJavRKdKvheyqEKclo3Dmc21WfXNWAq0EfPG34v7K2ehdl+fe3lOl7PpX1P8xGZMHT8W98/YjN6OlXhwzlIzYuLJKlOkOK7tWz7LyCXhLUk+J342E7Tfe33Y96nEiXyLEtJOEd6f7wj3vyFZv2Qqhwj96T4Svr/8/vcF/Z+0K/MRHiT5pf1d53Pcvjb3L/xECdkn+Sbkzrr3IaKCHBNhQc7L5CHTNuQuvmz1hzjFuiOvH/O+lqgHSbx5+fJl76Gk71WEgjcvRdKLPAe9UzkkKuG1114zBAoRPNQ0CBEF9HwSsl8iKOR6/SHn6OclEybkevmseR9KPNCFCUnEKQKKLGHqfcg+ERn0yAclDqnoCXWNt2x5L/WoqJFz59JbFo3ChCLLLQmQAAkMYwL5cDgN5897V816Lz92JRGbfac56AfXuUZMtZ3SFIDlB1iKc425/StMJT9FaeZUk5DnJi/L42gaJ/ejuaYMtZ3Jryy1o/mwE0B+LAfdSbZCke2kjUHChCxjmIYwIStU2D/W/Sib5aUUjsQ+x69G4k8zvzIBWRlj3KRKTJYw+eNBAoOfvQAY6kfrM4vRGn6atNYIs8yc2JufMCHRRdrSllrFRX+ZjbiQzbUZd/zkZkwefy+qn5yLap2pwT3gc6InSYzux8KJ96J6ThUe1K/XGhQ/vhqzt2tTN7Rj+ssgASJov35tuq+DxIlCiBLS1lwlv5yz50pGSTRFmPBG0fi+935vGaJgwLXy//D4SoyzhdDCCRN+ooRwVkktxfEXR1tyT8hTBAnZJ6H+mYoSUr44vn4OtuRFkDvx+tQHPxuVfGIyFUHyKchKHnriSL/z9X2S00GmjOhTG/TjYV57hQl1jeRnkKVCxXGXh1eYkOMSvaCvbCLnhY2YUCuX+EWpeMUDEWBkmodEcqj2qHYGbdUUD2/kh7dsdb1MYZHoiv7+9G7eUJhQBLklARIggWFMID8OpwVkMIL1v5+EqXMWY4vtjEn0gnbnO0iYkP2BYkMUrVKGJNaUh3XX1nYSo/uxfofnTmMaDpREdCR3Xq16M9kYbQ1YdjKT8gp0TV7tBED/7sWYPGkW5q1rQb+6+y5JSO0f40HChOV4B61Gd7we1f9+xAmH99rViUbUHnbNH4Ex1SaFMNW/vQoVgUksPYOi5u0fN0Pkx1WuTIzAMC4JECY8xaX3NoK68eGFm/TKlmiVsXgwYZpLuqXk5/xsxIVsrs24N0MxxAxT9ITyB31HirDn+Y40IuC1O+6RjfpKHFMwtfJejHvAs2/aYrR5AgaCBAhf0dn+jGbccyN3hJ5zolCihLRYJa3MdrlQSXwpS49m8oj3tqD5pClYxjuWYqpapShUYXFENlThwWmz8PTGiB1hIysJOVEvhREm/EQJ2SfOqeSNEAFCHGh5LYKEOKAiTkh+gWwf4ojrCSBVeSIaSCSF3x1+dY5yuEWQkIgLESj0KAF1XtBWRBFJ9qiiGoLOS7Y/SJjwXiN5I/RICHkvUyikD+ohnx8RabxRCuq42qpIDz9uco5XPFCigYghYR/vvPNOQvv8yg5bXtCfPtlvAAAgAElEQVR5FCaCyHA/CZAACQwjAnlzOIf60fzMakQOyLzmfvTvXoDZ644gKvkeJmp3moN+dHsdSJ3pQAvmlWvOvTHPXcsLICKE12m81Izp3jB0vUzttdzByo+zFUfniknaMnxapSX+Mm92AkDu4j69+wiaZ4nDHkHdnMVoPhM3Ilec6TeZCROyIotrLMUOtESoIkK4jss4BOQYsYdoyJzukbh6h32G8+LSfjxdOdb4DJg7o2idMxaT7aUYnVNzOu3CLlYckkl28kJ7dy5eiOBSookvpXvZiAvZXJs92ghq9YiHoO9IH2HCqFsTJvS2RDuWYnplJabOmYuFsgqO48fopxmvkwkTjrObcFlWO1TkhISK5yvRZVADZQqGRDxk+pBrM5nGYdc32IP1M6pQe+AItlRVaSsT2WcEvhBRt+54uyFS9V9qxsI59eiMimh4rxOZaESn5TfHhJ8oIY0W8UEECfUM7EgWB/ySMerFiSPvdd7VcXHORSQRMUJFbJw6dcq1HKc6128r18i1khshm0dYYUIiQFTEgpom4RVdJHJDxJhUUSJSp4zL2bNnfZvuFSZ8T0qyUwQnaYdf9EO2ZXurpTDhJcL3JEACJDAMCeTF4YweQd2MuWg6Ewe0RGvR3j70H16Kyeu0RIJBP7rFgdTDlG22fs69OK2O8yXLIyb8eI7tx9MPJN4ZtIu1X1j5KFTCOHt/li8kX8C2WQi+W55l+Xm+PC92gjj6di/G9OXtiA7JGFo/nAf70HupD01V+koYQcIEIMkdfVe68HOcjUSoStQyE1sm5KforcfUKZvhm8d9KIbOVZUYN6fZiewIYB8/04h5E8di6hrnLqZxqrHKh7PSgXO59NEvUaVzRtqvYvuxMB/iwdV2LHMJLmm3LO8XZCMuZHNt9h3z3N0O+o4MK0wMRdG5pgbTN/RAlgKV78b4yc2Y91g9Oi/5TysqhjAh3EScqK7673lZfSPZuEikg4x5JsuGyjVybabREna7ovvx9H8tQ8WUlWgLsyKPNa7ztkl0oBY9E+1B36UjWFZZj15bfPLYlF1p7l5IfgjJ5+B9qKgI7/5cvpeEi95kjHr54qiLA+7NbyHOsYgWckyPAhCxQvI7yFLxKsmkXp56LSKaRErI9AY9YkEdT2cbVpiQqAxJjvnxxx8bT+m3HqkhbQoT8SGCikRVJGt7NuKBiBEiSqgEmF4W2ZTtLUveU5jwo8J9JEACJDDMCOTD4Yzu22yKEsJC/1E9GEFtpTaNw3tcZ2fclZ6EZW85KxLEoz1ofmYKJkxJTEYoofUPrjiC+OAR1FYuQNuAXpj3tekA+s7j9ct5kE2o8lAc/ccbsazqXkyYsdmz6oS3XaX7Ph92gqEeNK0TUUL67RYeZFUAd1SB+7hOyljic9Zm9KoxF+aH6zF94r2Yt9c7TzWOzuVjMVuSj4pw4frxrpfq8/rqEayfcS/G/b4evYl5wpwLRITaPhcTyivxdKu3fjktjsiqSaioakSf7TjI/gyFCWN6UMBccx97ThBinJanfBWP9qFj3SzcP3FKQN9SFlGwE7IRF7K5NusOSmJVPX+JfIf6jKOxT4+sUBWriIl4FJ2yukvVYjT3WlMMNKEYsR60rqrB5BmrjTvs6nLZFkuYkLrbDx7Um1Kw17/b3g+ZjpGOOKFECbk2o4d8V51sQdOSGtz/wCys74widq4d6+fchwkPVGHhika0Ho6g72oMsYEY4vr3RXQ/tmxXUxZ14UG+Xyo94rx+PKOWprxId/zF6RVBQp4iWMh0jXw9xCmXOtRqEH71qNU2ZFqBekiCS3HgxTlXkRLqmGxFKNiwYYPvdAhxqjs6OoxEjQcPHsxalFD1SS4MqTfVQ5Y/lbZJEkoRKOQh0yxk+onkyEgmNkhf1SoYIspIX5I9ZJqH5AQJm3NDhBzVjmTjnnNh4rNPr4FPMqAN0AZoA24bSPYFX4rH8uJw6h3VhInogaVY5nUUteP6ZcbrC+2ofawSE6wf5RMqa7Bwo0wHSTgTiPehef69qBg/BU/vy/BHok+x2e2SRIr3YfJjK9F83DOJO7uCC3513u1EFybifWh6st6ThyFYmMCQLDW6ANUPjDUduPH3YepjK9GqnDEvrYEjqJ0yFhUTa7DFmtftPSXhvUwxqarC07t7kobAG9epcOpkySoH9qP2mRb0uW5YZyhMJDQ2TzvONWK6OEsb29GX2VT6PDXMv9hsxIVsrvVvTbi9krOjonwspq7TomwCvyMj2DJtsysBq0xdqii/F9Vbzai0WNQzULowoZo06DJCY28xhQnVrEJvJceECAwy9tWv9OPc518HNkHO/cOeK8a5mYoS8ROrMfmBKZi3pBGtJx0B3q50sB+9B5qxZc1SzJtm5gcRMepBPeLQPlkTHqLtWLZEy9VjnKMdt6/J7QtdmFCJLsUxlac3UiGXNYvAsGvXLlfUgF/5x44dM+7eS2SDPN98803DgU4WESFCxocffphQnEQBSKSCN6Fjwolp7AgbMeFXpPRHpqpIm4KmZch1IkpIhIecG3blEUkKKnzr6+sTlj/Vc12odolAJOdL5EayB4UJCikUkmgDtIEC2ECyL+JSPJZ/h7MUe802pUuAdpIuMZ5fbALiYK7qiOKdvptpP4slTBSbGeuHMSVD8kUogUK3IXktgoREVsg5WU/fGEHARZiQpJZ6ossR1D12pcQJjOFdUvddUvIgD9oAbUBsYLg93j57M63Q1eHWP7Y3NwRoJ7nhyFIKR0Acy2yeYvN8jF4CMk1DlhJVIoXYkryWCIl0pnuMFoIiTHifo6Xv7GfxCVCYKMCdVzq6dHRpA8PPBor/9cwWkAAJkAAJkAAJkAAJkMDoIEBhgsIEpwXQBmgDPjYwOv4FsJckQAIkQAIkQAIkQAIkUHwCFCZ8HBLe3R5+d7c5ZhyzXNtA8b+e2QISIAESIAESIAESIAESGB0EKExQmODdctoAbcDHBkbHvwD2kgRIgARIgARIgARIgASKT4DChI9Dkus7ryyPd/NpA8PPBor/9cwWkAAJkAAJkAAJkAAJkMDoIEBhgsIE75bTBmgDPjYwOv4FsJckQAIkQAIkQAIkQAIkUHwCFCZ8HBLe3R5+d7c5ZhyzXNtA8b+e2QISIAESIAESIAESIAESGB0EiiJMXL1OJyrXThTLo03RBnJrA6PjXwB7SQIkQAIkQAIkQAIkQALFJ1AwYaL36nX8ue8G/mvPTVR0D+K+Uzfxp7M3cOrqpwwjZ9QGbYA2UHI2UPyvZ7aABEiABEiABEiABEiABEYHgYIIE51XPjWECBEkvM//cuomDl+mOMG73bm9202e5JmtDYyOfwHsJQmQAAmQAAmQAAmQAAkUn0BBhImqj2L41cmvUPHhTVR8OIjyE1+i4sRNlEdixnPqqRsld7c0W6dmxFx/6R2smFGP428vx39f9W5Rxunktj/ioVkz8S81q9B+IZcO91G8+MgzaPtoDxbP2YQzjFooyviW6mel+F/PbAEJkAAJkAAJkAAJkAAJjA4CeRcmDl26jrL3B1D2/ue4+9jnuPvoZ+azM4q7O6P45ZFPjefBi7l0OH3KevsZVNRk53x+0vKv+JetvSPQeevF1poy/LOnb2e21qBiyR60/XkqXjz6Lv79t6tw5KoP27w69O9gyZxGfCJ1dNVjsd3Gd7CkvAZbe8K1p31JGSqWvJMwdp9sn4l/2R5B25//b/z7u+HK+v/be/ewKs57bbjfX/u73u73bdru+u/bq7vdbY1tgd2tXBqN2Ua/nBNMq5i6V0y6JU3EukPUEkzFqBcag5SqMRFMJKJ4iIR4iHgM8UARUQgaFIKCGkA8EAiICYZ4f9dv1pq1ZmbNzDovOdzrutY1s2aeeQ73c6+Z53fP7/k9fdWQZr3C23/ReAT09PSAX2JADpADg4kD3d3d4JcYkAPkADlADhg5EHFhoqjxCn5V2qp8hx29jF8dvYxhR1rwqyMtGHa4WfnefagJW89d9jIaw2pohSJMVObi2UV7cblVa5x/jMyRMYiLvQdPTP4dJrm/0zD71VQ8O07OyXc+ipu9DaaLxzYjc84U3K/kEYP48b/DnzM2o8rEI0ARCJS81Dz12wW7Pw8ROzth4mNc3r0If9pUjSOZSdjwqXdbQu0nX+2LU4WJT99FRpiFibbG9zFvzvuoL83G7A3VIeIYfmxCxZbXB98n0RAmzpw5A36JATlADpAD5AA5QA6QA+TAYOdAxIWJkguXcfdHFzH0oHwvYOgB+Tbil/sbMXR/A365rwG/3Hse+xtawmIU+jRytQa+yRv0tmvnsT31HsSNnYH33G/jz+O9WVOwrvoKyldOwRq7N+ufvo95j8VgzB+zUVxZi8teHgafK3mM+a/XcPDTz1GV+zvnm/zmahzMnIL4xxYFMF3BKY5klARvfDkNV3thIhLGrbOfFuGIT28L8YwYjvufN07lCI/HRCTaZsxT8dYI0VvHmCd/h8p539dHQ5i4/e1t3Or+Fj1dvfwSA3KAHCAHyAFygBwgB8iBQcuBiAsTYkCN/+gcfrH7M/z8wzr84sM6/HxXLX6xqxb/tuMsfr7jLMburQuLKGFrrInHxPObfccRKM3GQ7M2o/5YNiZp0qteA7ZlfPou/jRyOP70rvWb94uFL+rEBzFaPVMoPsfBRQ8g/tW9uOzTYBfDymm0Zx72bWSZ1vvsu/iTVqix3fd/2oRpWdr2KOX6mZ9l2jAIE621KF6UGhEvED0G5sKPPk2QfajFlfthvY9EQ5igKEFBhqIUOUAOkAPkADlADpAD5EAvoiJM7Prsc/zs/dPOb+Ep/KzwFH66rRo/fa8aP936CbbXXgyrQWFq8IkwYeohoTUIxTNiOBbslakRn+NIxmP40yY/Y0q0VmDdUzGYmlth3RaZCvLAY1h5zFPmwUUxmF143nONYoibT//walfj+5gdQJwFr+vdhqy54ax4NfjEzNMW6/z1aQLK99N38axpG0MUJhpLsW7WPYj/3SIU1+nr12Yp2Pjj4WHIS8VY+BcbwvVqPtx6/isRxiIawgQfQhyIkAPkADlADpAD5AA5QA6QA1ESJs60XsWC0y0Ys/ss/rXgBH6y4Th+sqECo3fVYMnpZly8ejUCxsbnqNowH1PHSjyGezD1qcd8CxPHsvHEU7moUqdfXNqJBWOTNFM6LIzOa1dwee98xD/mIzjksWw89FQuatwGlVMQ0E/FqMC6yQ/oxAtLg9/Sm8C6nuZ5RVOYMGuzTX0PWBn0wQsT9Xuz8ezYe/Bs9l7Uq33t7hOLuhx+DfEjX/Nj6onF9Yp3Swz0fW2VlsfNeRpdXChMcJDAQQI5QA6QA+QAOUAOkAPkQHQ4EHGPiUUNHYj7tFv55l//Bv/44mts/LxT2a65eks5PubMDWy69EVYxQlFKEhajfLGK2hrPa9MkbBfleM8tqcMx5+3arwXRHDYPR9jnn8XNbYG7Oconq+dkmFuQImnwEMrtUtumhnXARjuijeByVt45e28PkCmMxCn55jeQDYXJmrenWYu5gScvwYPRUwxqbOFMKDE4NBMqfEYrGbYecq5WPgaVpZ6goI64zykYsFT9+H+57Nx0B0/xHONJ2+TY9JmQ5wIJU/b6S/adppjbFumBSa8xqR/IoAVhYnoPIT4sCfO5AA5QA6QA+QAOUAOkAMRFSZm1H6B2E++REzVl4j9pBP/Xd+NMzd7caa7V9k+VXdDdz7rfFvYxAkRATyxG66gbe98xNm98RZviQfMPB5EdBhuP0Xjmng5/A7rKu0NJn08iStoq9uMP3m59wdgwIZteoB5mVLfZ23iZQRlIJsY+Nb5CK4xmGQ6PcZGmJApM4+pU3KcfeIUJrJx5FOPWGFdrnc/1m9K8i9GiY2BrNQhAlNjAmkH03r3rRUmFCb4gOQgiRwgB8gBcoAcIAfIAXIgOhyImDCx/LOr+HX5Nfz62DXnVvbLr+FQew9qbnyjbM3Ob78QnmkdTo+JXFTJUp2ttdg+/wHExSbhPWM8AcWQdBrmRm8Jt8FyaS8yHngMGSVWRq2NkawxVL2ECZmmkPI+LmrStF1z1kXv0WBhTImRP+1dzdQQi3S6/M3SmAkT1dgwLQYZB8zSh3AsAGHicskiPBTrXA3F3RfutlhjXr7yMcQbvCxCFQUCiovhrqMep3Dk4Y2DvgyeDx8eFCai8xDiw544kwPkADlADpAD5AA5QA5ERJioaWnFsMPNGHaoSdne7drK77lnv0BN1y1la3b+/rLwLBsqwSvLVyfh/pExiBt5H/608jXMjrUIKtlcgQ3zVqPcZrqGGMlPjEyyWMFBjHjfHhPlKx/QeXHI76nvGFbwaN6JBbG+8xIDVHmLb5heEDbDVJly8SK2y1QYC0M7qOP+ChOK10MM4ufvtFihxFyYsOqnUIWJI5nDDdNwAseFwkTgmAXFsTDxlcIEH5AcJJED5AA5QA6QA+QAOUAORIcDEREm3jzThF/ub8DQ/Y1e299+dAGfftkD2Zqdl+vy65rDawxLrAh5+z45F1UhGC3yJj7OQpwQkeEJXfwIbyNMWSpUdeVXVujw9ga4uHUG4nQBMr3zUY01xdD18riwTq9e53vrXLb0oYyPLUSBEMrwR5iQZTxfFaxfxPZzVmV5CxP1u+fjiVhzz5aQhQndsq5WdbI/HmodfPebffm8PjB8KExE5yHEhz1xJgfIAXKAHCAHyAFygByIiDCReOgcfrGrDj/fWYufu7ba3xMPX7A9/9+l+gCUIRtUZ3diwWPD9ctyBiNQtFZjw7zXcOSSiYEjK3iMfAwZB2zqfm4z/jxyPoobr+DizvkYYxQVqt/FnyQPyykj+nJFDPG9BKr+Gp9Ytp5HeW4S4h9bZN7OYHDTXuMr+KVrGc+4sTPw3qd2ddcIE83VOJg5BfEjp+gCXmrbGpoo4JzqolvWVdsmv/bNpsvYtY/ntP13J/YpTPAByUESOUAOkAPkADlADpAD5EB0OBARYeJnhacQyjdu+6ehe0y0fo6L1R9jQ8Y0jIm9B8+uLg3/23+jQVr9Lv48djgmpaxGcWUtLptMDakpTMWkkTEY89QiFKvxLs5VoHj1i5g08h78eZN+aodiUNuu/OBZacO4akRAxlzr56gpycWCp+7BmD+uxpFwT+FwYyWCgsmymSIuKBjE+Fm+5PMA/pQi03WGY9K8d50rsLjL0Rv2indJUi6qGr3jhFw+d97TV+LR4QvvoKbPWLTbor4B9R3zCP1+YYIhhYnoPIT4sCfO5AA5QA6QA+QAOUAOkANhFyYuXL6Mn2yswL8WnAhpG6phJvEX7n9sGmav3okqy+kAeuM11DKV61trcWTDa5j9x8cwxh8DtrUC66bdh6lzVge+hKWJMRVcG2TlkfvwRPIibCipjYiRp62XmfdCzYYZeOL5RXjPb2+Zaqz7LyduxZU2XioqRpdKsSb5d3hirEbIcQsQSdgQ6PKhar7+bhXBQ7t8aAS4529dmM4vjlOY4AOSgyRygBwgB8gBcoAcIAfIgehwIOzChBigyftP48frSvHjdf8IaivXaw1Z7g8wI1aZzhEFMaDPGOCcxtEf/8MUJqLzEOLDnjiTA+QAOUAOkAPkADlADkREmOiPRgjrHF3xQ5laETs4PAgUDxF/vGf6jJASXS701f8ehQk+IDlIIgfIAXKAHCAHyAFygByIDgcoTNAYpHcKOUAOmHCAwkR0HkJ82BNncoAcIAfIAXKAHCAHyAEKEyYGSV99g8t68U0+ORA9DlCY4AOSgyRygBwgB8gBcoAcIAfIgehwgMIEhQm+LScHyAETDlCYiM5DiA974kwOkAPkADlADpAD5AA5QGHCxCDhW+novZUm1sS6r3KAwgQfkBwkkQPkADlADpAD5AA5QA5EhwMUJihM8G05OUAOmHCAwkR0HkJ82BNncoAcIAfIAXKAHCAHyAEKEyYGSV99g8t60buAHIgeByhM8AHJQRI5QA6QA+QAOUAOkAPkQHQ4QGGCwgTflpMD5IAJByhMROchxIc9cSYHyAFygBwgB8gBcoAcoDBhYpDwrXT03koTa2LdVzlAYYIPSA6SyAFygBwgB8gBcoAcIAeiwwEKExQm+LacHCAHTDgw0ISJqi31eH/mIbx5fxFejylQvrIvx+QcH7rReegSZ+JMDpAD5AA5QA6QA+SANwcoTJgYJH31DS7rRe8CciB6HBgowoSIDiJALPvVRtuvpKFA4f2Q5MCBmJAD5AA5QA6QA+QAORB5DnwnGoNvlkEEiAARIALeCET6Ibf31eO2YoSZWCHXRLpezD/yD3diTIzJAXKAHCAHyAFyoD9xgMKEt63AI0SACBCBqCAQyYdFMKKEKlRQnFAHMvXYOCsPpzvU39xGkrODK++bOJ2XgpRXM5AiHGsLB7euYG9qOvbWHkJGyi60dIUjzyDyqN+FlCVl6LpT5bNcP8XlSHCwFy07UpG+4xJKXk3BzoYg+MP+87P/iO3gemYMjv6mMBEV84OFEAEiQAS8EYjUQ1WmZKgigz/bolmHcPqD8zixodZ9XX+Z1tFVmoNUMe5Sd6ExbALCTZxcPgMba3vRmD8dGSU3XQPFK9iZ/BDWVPo7QKjBmgdnYOdFY/or2PZ8DDJLjcf9/e28Pi42Bs7vDGxrqESm+7d63LNN3nJFP9i9vA/pyTPgsLnGnf/zhR4j99gKxM/Zh7ZAjIe2Q8h82mh8V2LdlDyctMunNNPVPk873HUy1NurfXb52p1rO4SMkZk4GTYuWfVpJTKXVTr7pCTDzYWTy2LgV1saCpEcm+mNX00BkpdXoi5/BlaUqry1qkNox08uG47Mw9oy2lGyOB17m9qxMyUFO5us8r+J0iUJGL/K1X67/tCdE46btFmXpheCYeqOdj3fDWkide/1la/ULaD/vfwHtP+/sLbDnIMtW2YgTuWmbXkW97GOemxMXoGTp5xcjKxAVY+NUx3YWGPFNfPjp998SHNfN0/j7EvjvdbiXuRXH1ngZYuxXd3Cc27/7oM4XnqyT/5ffP2feD48HOhLOFKY8LYVeIQIEAEiEBUEIvUw8CemhAgWfx/5Hj47+Dlu995W2nt6+3m3MCF5BFw/G0PSbDDeUpKH1OkJGKMYmcMxflIK1uy5FMCb1npszD7kTF+6AmuOBf6QbtmSAserhThtNKIqcuBYVYOe2kKk5NS4sKjEipGp2HvZz3Iu70PqyBXexmNXpAeokr+9AddWlAJH/iVNH1ciUx1cl2ZaGsct22bgkTdVPPzDoWt/hqEsuc4PI1P4ZDCQxGgyckmOaY15Mf7iYoVPk5E4Rf1OR+qrKZioChqGfFWud12+hJ2pw5GaV4ad+SuQMWsyJi5xcUw1IBRRQGugDMf4x8chPjYBa45pDHWvdNprYhA3chySDaJayMKEWseIb4Vjk70Mwq6SDCTlX0LbjnSDaOHhSuOWGUhcVoiNyZORGZB44gdnupzChJEjav8at4FxRcoXEdDTFmN+vn4HJUwsKdP8TwMsOwgOhixMRJx7GgxqC+B4MAenbcpU2qP+731stfcRX30Z+Hn5z0zHtnpN/XX1dj4XtOJr/IQEjB8Zg4mrKgN4Llrlb378v/7gwF3fu4vihK4vzLEKvM+ZT6CYUZiIivnBQogAESAC3ggEesP2J72/3hIiSlw5+wW2vVCCN+4rVMSJTc8ecAsTIlyE6jXRdaoAKWNHIymnEm3aN9Adl7B3XgImzhNB4JLbe6Crvgwrnh6OicssBmFN+5A+djgSs9XzoQsTPU012PaqA2NiRyNpVRla3PWsx8Y5BajTDlZ0QkMl1ow1GJqxhrfdlTl4RDX2tfmEKEyYDbSTt9SjZH6q6y21Vpi4gp1zMlCiE1MuYeNU4xtt/4QJedOYvM3pfdFSlIJ4r4G+URCRuqRgZ4W84ffGSzsIl32dYRCkMGH2P+kSoWmk9PEh1DVoxIOuXojYotRj5DinkPH4aMRNSsW6ojKcrLmCLjcnLAaZV+uxMWUcHG8aeK7rc8O1isHobeSGJEx0tKM0O93G8DHUwa5+Ps85RYJSNzY3UZefgtSCQqxI3efxsDHk01gwA4nz9jm9mzouYVvyZGTsN3jzqNfYGtUu4SnH2+tCa/x3nSpExtTRiJP/d75/qw9Zc8VamGgsSkFSnjF/b0NTy/f4CSKaubyGbNuq/9/4K7qY/Q90xyw4GKow0XZ4BdK3aEXPcPKuF2b3Py2ucX54dEkeYcNR5atmKxzU1cnq3mf6fFDxcv6nxj+dg5O6+7d6PnxbVZz4rOZc8CKYpv06nvE4MQ2AAxQmvG0FHiECRIAIRAWBSDy8ZflPX9M3VFFCGvnR6ycVcaL+o8+9rpO8gq1jY1E6Jo50YM0xb5dqGRTGJxe6pl7I4F3z5vWquNI7lGkUxrIb8x1IKbqE0iUO99vYsE3lqN2F9Pk+5uXXFCDRdiBpGCgeVt/4WxgoYxOchrCJcWVsuz+/1bfVPYrw4RIImnYhJWWXbupFV2kmHnnV4AUgHgxq2yw9Jm6i5NXAXNG7DpuVJTj58fY7TMKEtHfiyBnYeEovSFhiGsh0jouHkDnVgUwr49pqQKYYhUYRx/m2XyfO+Ht9xyXsnJeAeDMjxsKTKSjD7Go7GisOYdvyGXhk5DiMV8Q5l1jYtA+pY1Ox1+h9JG2Q+s13wLHkkEb8cx7fO28yEo3HTdttxxnxZvIYg/FLytBWmonESZkoEQ8H+R+Yei/p/7P2XLEWJnrkvjU2AyVX9fkZOaYVTYznTH+b/AdM05niZV+XHgsOhiJMWN73LYQXv7hu1TY/MXfeDz3csBYMvP+PYcNaaYM8B7zFSNMyOq6gZInJ/8UKizAcF3HiN7/+Da40XQ/6uW/aljDUjfn6+C8PIIwpTETF/GAhRIAIEAFvBCLxsLWaxpH3+93Y9Mx+5SueEtrPldovlGkdRkEjqOkc8oCUN6Hz01HS9lAAACAASURBVLHXzGW1oxKZI7Vv670H+/JWPtH49rGtTBn4l0qQQBmQPp6JUh9GgD2+l7Bx+nRkFtXovTm0D3iJjTC9EI3qsQCNBBngJxWYvzkM2EBR66BsDUKHKiiIQa3sy3nnIFsfI0P6pgZrHo9xT5Hw/WZPO5AOYGAt9bxaiUxNWYrBY/XmUI4bp1dYGNRmhoWlgdNWicwHE7ymDNTlpWCdWayQjptoa3JN53izEOuyM5AySaZoeA8MFY+gqenYWet9zp57vegRb5opBo8c1zQEy7ZoOaAxKtsqC5H++HA4srUeP3Z1cvInYGGioRApj6cgI7sA27Kn45Fsl7eCIiY6pzidfjMBE7VTfTraUbcnB0kTJiNzzxU0qt4pGh4kb7mElj2ZSJzgQEZ+pV640LbZHzFLwXA4MgsKkTwpEyfd9wg7UcOFlQVXPH3pfa/ynOvF6VUPIaXIW4jVpgn4fx/gPUdbls99Cw4GJUxcrsE2RRhbgVKvmDrmXBQs/OK6jgNqXjdxcplHoPbZVkMe0kaf/A/g/qPek+zb4+f9U/HAciC9yPzZEWhbA0lPcULlF7eB8CacaSlMaEfn3CcCRIAIRBGBcN7M1bxejynQeT6Id8Sl462WrbISJUSkkLzUfMO2NQZPlOkRxoB24mlgcMeVmAiPSMwH1wCzbUcqxni99Q9sMNFSWoD0ScMRN3Y61hz2dicXD4R41eh3ufzHq8aYYaCr1ku7PZk93D3tQXtc9gM2UPwor6erHSVvFuB0mypM1GPd9BzNqiIymJ+M5GWZSHKJACeXqcKDuceE57xgK2+lzYJ5muHuLCsjLw/JrrL0xoDBUDQzwOSNt0Gg0ufhLFeOWRkEwpt4LU9qCpwxQ2oLkLRYXTmiHhunuN6oql4s0x2YGJuCdSU1aGzy9rRo3JEOx5QZSJnlUOaAO2NapJjyyNj38lv4G6etl6t/7Yy1xi2Z2KmKfYowMQPp8ydj/NQMbKu0N4j1dXD2Y2ixEiTwpdrvGoNL8UzIgCIgdt3E6Tcdzukz/riit11C6aoZmLhY9eZxCiiq0We29e73duyd8xAeeXyGYUqLgW8m/ycvrnilsRcmeiq8p24JN83q7T6mub+ofdS4IwMOlyfK+AmjvQU7r3qp/RDY1oqDSp2NIqGrzK7DOVjjjgvi7J/keelOUWmLjcjrVWcJJByY95WKj2wVz5YHJ8MxYbgznswcV/DjhkpsWzYDyS5BWP5Pbqw1YpjtMYu2q+Xb3W/UNO7t1RqsS5b4MzGIGzsO40eq91uLvqrfh/SnJyM5JcXVthjIlJ8U3TRDi2u9MO7Fd77znaC+Y+4Z437Wuttikj/P+d8XxMo/rChMWA7XeYIIEAEiEFkEIvGg0goT2ikbZi2xEyUiJUzIoE5nbMr0iGc1Xgky+BEjVTtgl7f8Dxqnd8jAdjQy9huNRjEe7Aaj3gPDlpIVSPeafy4rC8To3oAGNCD1IT6EJkwYDDYtVsrgUc6buCV31GNnfqUyqFe9EzzCg3/ChD+rIii8bqvEujcr0SUGtJUwofUYsBAmjIan9IHxTad1v4iRGmPgyCVsfFYMZ4m9kWMSmFQdPMm0FRN+dbTj5JsOxI+djswtlWi87OFfW4XTc8H3ihA3Ubp4uKmYYilMKG/zNf8BlzCxptRbUPN9XzEa2AY+mfx/9JjL/1EbBFauV/9XTsyNGEgf2RqDj+fgpM8lU6Xe2nLVvtJsJRhi7HBDn8t5udbkP+E2tsy4oslXSWfEzXBe8Qazr5/0rxEbXX9d3IXkBzNR6hJyGvNneIm0uvTu+hvq4vO4NQeVvjI1zqWfh2tWs3DyJnmVnZeLVb2c13p45fxtxxF32vpCJI8cjsT5rqDFHVewbZYzAO2YCTOc/0srLrnimmSW1mBjsla07UVLg9V/qR11x+rdnnW6+03HFZw8XG8ZmFIRp9Ugw5fLkPmg9apObcdccXCWFeJkbbsnto3EQRJvFINYHx4e6Psn96238b3/8z0GwvT5/9HjFom+GKx5UpgwG63zGBEgAkQgCghE4sGjTuUQUULiRshKG7IcqOwbP8Zgl2GbymHzUNcN6lxvjr28EAzChPIm0/12WzMgUAaoFnPabergF+6VOZj4YKbOWDLW3Vc+duKD3Tlf+ZqeF8xMDEr3Ma14oREBIiZMqPgbhAl3fczqajCGlDe6ZulMjhkFDCdGYuyoBrOHNxKA0WxqhheuDbuQbJgy1HY4E0nzClHnniLgyVeuV7xskn3EKlGmPnjXS663EiZkioTO80MRJuwMbX29dG0T49fWSLe5VvrVK9aKHue2DzMg0zN0Zap88Nq6vHj8Su9cftfa00PEpMmYKN4SxpUzBC/b1Rv0bTCv+yVse9Ykb3ebnOKGx5PEG0cleKxx6V739b3okb6ZssId7FARJkLpK23e2n0bDloJE/J/jJ9agDp3wFOnmOAWDLT5+9wP1mvnJk6umu6Z5tBQhnVzHBgzMgbpvpaIFVEiZZybm21FqR6RRZ4lE4xBgl39J15AmmeB/jkggYStOSHCRIorWHCPIkxYTF+Rc9PTsc0qDo5MZfTbW82bd+Z81qejKKHHwx/MmCb8mN0RYeKWc2U64xiZv4kAESACgwqBSDzU1OCXIkyoQoMIE2YfX8JEYMEv27FzjgPrKjxvkM3apx/UOYMpGr0elIGx6uauxER4CGsqzB+AdXmO8L9J6qjHxqnDvd5sausug3Rfy2baiQ9258xw0x9zGgQeI99ooMp54zENfmERJoxvzTX5a40SjTDR03UTdYdrnIE4xQBT+1ibXrPfWDDd68239IHRENL2izdOdsvzaeosBk7qdEx0r7QyGhOnpyJzngPxJkJDV00hUhU38tHKcrNuoaK+EElaEUjTHrVuXiKDJo2ZMOEMyGgIrBiKMBHKtV29kCC0+qVm/THqNVhr2ttYkIKUPOs3zipmzq2PckRMTMnBGhMxSgn0aNsvkrcvrkgaTaBeTTvUetblTdZ7hBnSWHPVg49nKoesaJSD9AgIE3YclDqqHlVqu3oUEdhhWB5W8Ah2OoYP7xMDbu56aI53la5A4oQUbKxsR+ky+3qocVjitVMp5D6/uBAtEgtnknHqj6c/5BmjFT6Nfaj8P03uEUqdNVM54ielY82S6bq8vNrVVo9tc5xTP8bIFC23UOFLFPPU1ytPDWZW5155eT49JfzAyQo/Hg+Nf1r8oiZMtN66jaUtPRhfexNxn3bj/tqbWNLSgxaqFGb2Ao8RASIwCBDQ3ozDtW9cLlQEiq+7brnR1HpOSEBMVbww2wa0XKjEirB9I+l8cHXtz0C8+mZceQtkdH12Dnbd7s61hUiap19VQoeVIlxYx3LQpfVn4CGrB6SMNl2yVDsg1e5blaETH2SAOisBY5S3/cMRL2vTK8uleh7oLXvSkaQupWhbV8FIFR60+2peZsfUc66pMq4+CN5jwpdrvKs8nTDRC4nNkJxdCVle0T5QoIhW3m7Pgrv/wkQv5A21fTmyYoOsJuHAipJLHvdp8X5ouoTTRQXI3OaJbeLsa5lGNNkZPFOW6FyWgEdcS9yKN0a8mXePqz+dIoO1l49RmJAAm8kjvYN3Wq2oYMVF3XHLZWw1HLHkn7wh1kwpUdIJF4z/Y0NeihhiN8XK3LBsOZyDFFm+1e0l8xCS3yxDo5ervngrjEZGSb2pl4xOmCjNcb811+LiD1dKl2jq2VaGNfP1S6PK/U0XO+RiGda4//fO9j+SnIPSensB110viVthdV+VFWGmy5Kjk5G0zLDaiWX/ueIzjLTmoPzHdMLERQk2LFOPjF4wznu18f/orrtNHXrMYgvZpTeeU4Ihe8QE3b1Wk1aWoF43ZzLGTBJvBBNu1O9C6uMp2GYVwLamAI7HDVM+vGLaOKd9eeNj+A90OacHup9tmnqqmMnSxYk5zvuNeGe5vfYUYUiN3WLMN7TfEvCS0zdCw1DtP25DxzEqwkTtV98qQoQIEsbvf569iZqb37oHzdwhAkSACAwWBCL1EFOnc6hiw+5XyhRxQjwnVO+JSxVXbEWJgFfkEMNDGzPAZNCltNcVHE+W1TMz4hplKVHDQNAXTl3HVijLQe40um9b1cHqeMMhZE4ajokW4oAM2FUvCcUAeb4AdV4GkufBLG68qjeIYvSoLr0dN1GyOAYTpzowJjbB45bsEkXGpLgCuVnVU7scqG5fLTuSwoRqgErAyIeQud9H0EWDMCF9Wfe2A3HjUj2BHM3aqRgemTjpdht3ti1QYaJHpmOMnWFteEjZ4kGyuMzPqQdSDzGCNW0XTsemIHPVdIyRN7JqgEpDu9xLKdp4FWmFCUmfONaBNWbpFUNfFafUfvdzK+219R6wyUemcUwt8KxUI20UI9PXUpwmPND+r00NS/GqmZqDk+ryox31WPf0ZKTOF5wne/43Uoe2SqyZI7FqhPsmrvXq/UmJMSAChokw4AdXxIvHvdJOaaa3t9axFRg/RxUrRMByYE2p5z8i3E+ck46ksRIjwcf/3LWqjW6VEw2nFFHRxTXdtARNGi3Gsu8PB7XCRNuxPCSNTUD6DqMoIRwJQZgIhb/SPgmivMTznzXljzK1Kk+z8pI5N7oq8pBhFlxSAlGaeFIIPloPCgVjpa9GI6XIKk5FL5Rnm40gJPkonnhLDrniWbjiHC3LUfjiW/iw+d/acGL/7oOMKWGDj/E/xN/B8cxf3KIiTDzb8BX+veYm4k7fQNzpbsSe6kLcqRuIre5Uvv/12Y3BYocM7nY278bszHI07EpGWnHnHcCiB9U5SXgu5SXMXLQbTb1hrEJnOZbO2oymxs2YuboaPWHMmlkNXAT8vVEHms7oNSEChTq1Q2JO+Ap6KekD8pZQHuryJnU4kvNq0GIx/15tR+O2VGUlgzHT83DalbarthIb509G/OMWy4zaDhxuonSZLP9oYmzYXicGTTsaK3Ypb9UkoOGaEuuBZY+sFqJ6e3RcQemqFI3rv+ttsHpeVvHQDGC95ho/7vIGqC1EenalJ3iaYjgNN/XYUPFTDQLPW2SjgRqIMGH/FjsuVmvk6d2Ju04VIuNpV8R59xttbfpeKG+qXZg4+9gBhwStq6/BzmUzkDgpBRk5hShRVr9oR5srmKRgp12FRW27HDe+odXirKbTbhWX77GTkZpzCHUNJhwRj4mRCUjP1wez1ObhtV9/CJmaN+FK5HwJWmcijrXVHMKa6aMhrty+lhYVAytxTiZSJw3HmOk51ksvKnEiZmCj29XbM1js0gTkFGw8PDHrayN3PPl4tbnLfEnMtj0Z3ga68X8XrDChEf+6agqQrHpm1O5SlkhN1P53lDLNjU/5z4gnVFzsaDhWaf5vhnr65IoE11TiLLQ7g6OaCRzuPEWYmIGNNS7OtdVj4/Ou4JciQkpAw0krNEuaurC/egknt2Qiaax4Ve1Do0GcU/vl5LJU7HSJNhKHRxVB1fPabSAcVDjzfAYyXZz1TCcwckPaF4Pk/Hqdp5FSbpsmeKMIYe77gxkHDfcMN37G8jS/hU+PZ6Ck1uT/bHm9cGM61u2vRMmWPGS+muoRtxrKsCLZFThTfX7VHsJOE1FQxCkvYULKrC9DqVGU7LiJlppDzufLSAuRUVvfjksoWaZ5rowch8RZmdgWVJBbDV7aMrgfgAhNDLX3kWjsR1yY+LS7FzEn2xFz8gv85sQX+E1Fm/N7/Dp+c/w6fl1+Tfl+onE1DtkMcRucTShKcmDLJVeOPSbmYm85sh5YgqMaO/n69mTdTfTezHKdodmwKQlTNjT4Vc2m7UmIz672nbZqOeL8SWeS0/VdyYg31NEkWZQOVSMrNgZZVfriqrNjMHN7ObY4luCoCBRzd0MDuT5xpH61FiEt56ySe8/RJZ46CvbJRbjuV7nXUZQsbfFOXZvjwNqaBmxxvITidr8yY6JBjkAkb/J7Xz1u6hEhUzlUkUL1qDBu5dqg6nZZjM0UJCpz7w0DULs3tE27kDrBgdScMrRYDMKDqo+vAVhbJVZMcg38SjxR1y3LCtAFXgkWpy4vqplrHDdyHJJzajxihLGeTfuQLm9/Lb0xrmDv/DzXihLtOJm/T/8GW3mTqXo2mAysTGNMmKSTYIw56dh7UT3nCu5Xqv72Y+sySFuKUpGUmoeSGs/bYwXnjptorDiEbTkrkJk6HSmKu/gV7E1Nx171TbkGn5Yd6Vh3zFWuvL2PleX0xPjzUZfL9SjJSUXS46PNYwBclGUGU5A4ySC0aIQmS15o6ueVpmEXUh6fgTV7/OCXK36DLP+50achchOncyz+axGISeBsVz02Ts90LQXaC5nWoBicY6f7FgWVN+SGe4LBWDUKThKT5HR+qmvpTOlnBzK0b+4vl2HF/EKD4W4lTPjgh7YPbbkiwRfF02k4vEUR7zK6KgqQOtU1FWXkODhe1QgNMg0oO13vYaMEYUxAyqsF3v8VbR1lv0kCJrqmcmjzNaYLkINtJZlInOAfZ8XbIMX4n3H1q3d/euPj9X8x1t3mtzLNZ4o6PU7DrbGGWBiyQlDyDCTNysCK/F0oLa23FM9bSvKwQssxTfmKl5y0beRkrDnmjyDiDOw6/ulUrNgSzMol4cUrFKx5LfsiWhyIuDCxv+1r/Kq0VfkOO3oZvzp6GcOOtOBXR1ow7HCz8r37UBN2X7kZHhOlpxprE5fgaLdkJ0ZkMopaZb8TB19ORH4jgNYizHRsRpNSohjSy6GVDkSYUA3rhk2JmK19u99chJmJC7Bw1ss46I/xeWkzpj2ci1q3WGLRzFCEie3JiF+tbYFFGQBEILBWrhOxRfAJ6WMnTFxHw9YkvFHVhKK5y1FtohOFVLTP9sXgUZcwgePL3X2MMAkTqF2PaXln0Vm8AFnHI9C4UMHh9X0OgUjf6I3ihAgSERMlNAO4SLeL+XOQRA6QA+QAOUAOkAPkwMDiQMSFiRMdX+Pujy5i6EH5XsDQA/JtxC/3N2Lo/gb8cl8Dfrn3PI61hUmYEAmi+CVM2yqyg0aYaN+N2aoYIcKE+w25nTAhb7+XwG1j9jahaFaS03hvLsLs53NRqwggFvZObw8626ux9vcjkLapHMVbVyHrlSQ8Odf77bzipaF6TPQ24Wh2MsaPikH8Ay+juNkif9dhpzeC9xt8+6sMZ6/vxsxYVcQxnAvop70wEVBWfiZWxBZ3f9pcJP0eOxrTjFM5wiVM2BQdllNK/b29UcKSNzO5IwhE44EqUzKMMSeMHhLyW9IEPn1jYD0Qo9EfLIOcIQfIAXKAHCAHyAFywJsDERcmZLT/wKEL+MXuz/DzD+vwiw/r8PNdtfjFrlr8246z+PmOsxh3oD68RkHPESz9w2Y0aIQJmX6Rts81ecBfYaImF9PUN+yKKJGIhfucfhZS4Z6q5ZjyTC6qdXMSnK7+4pVwb0IipvwhEVMSRiPu/iSsLS5HdeN1dLpfpnvSKl4Mo5bjePtZrH0mEQu3n0VnL9CwIdHUG8I43UTvBaH3APELXMXoTUZxsPqGGPcGt0zr30HUz6oRSrl+5meVNhzCRHcDtixahWo7ocqqDYEct2pDIHkwbZ9BIJoPJREdZPlPESBejylQvrIvxyhIeD8co9k3LIv4kwPkADlADpAD5MBg50BUhIlDrV342funnd/CU/hZ4Sn8dFs1fvpeNX669RMcbP4yzIZCD5oaxcL2eExcP1XtCXbolzDRieK5Lg+C1iPIStSLEmqFe0S8eCAJa4/bWPQ95Vg6ShPrQr1YsxWh4dHVu1E0KxFZxzVKx3FfsSeq8caoEAQFtQ61uXjUMKVFPRXYNroeEwF5iwiWZm0MVZhQ+DEC987djAajMKEICSbTZ/zx8DAF3ilmmcW4ME3Og30agcH+AGL7OQgjB8gBcoAcIAfIAXKAHBAOREWYaL51G0vOdeDe4lr8a8EJ/GTDcfxkQwXGfHgGfzvXjs7e22E1HqzjKLgMeD+FCYlJsfZUNdY+k4T8U2eVoIfeXgDLcfzSbizNsF/loWGTA49mW6/W0FSYhEcfTsDM7R6PDAUUMWzVKR5mKMkUjFGrnDEyrh/Awj8k4sn7NIawvwZw2N7ER1OYkLL8n34iGJsGuQxWmOjtRO32BZhyn3i4NOgCpJp1lXpMgpXGzdrtZ7BN9SrPVvGW8bdfPZdxrw8iwAcxH8TkADlADpAD5AA5QA6QA+RAFISJ1y/3IO7TbuWbf/0b/OOLr7Hx805lu+bqLeX4vWdvYkf7N2EzG6qzzYxVedPscvn3S5gA0H4AaYnegSvFMAz4jXX3EafXhFlwyd6zWJsQg/iMI17GrWKE2gkT4gXw8gHnChdKTItO9PgKtGmGtORjYuxaizyq+GGcRmEuTBzPNFvJwjCVxWwqiEmd3NUPSFDowdGMGNNpMfbBLztxcKU2loizzlNeXoCZD4zDtIwi1GocXNx1s9nx7tMAcQibiGRTSZ6KCgJ8CHEgQg6QA+QAOUAOkAPkADlADkRYmPifhm7EftKJmKovle1/13fjzM1enOnuVbZP1d3QnX/z8tdhMQasjekAhQlIjAcHlpa5g0Io9QtKmJCgnPteRnxykWdKiau1snTlvaNGmIod3kasHiJZNWTKJv+WLtVfqf+llGMnAuiT2/wyEyachnfWcZvLgjjlCxtdlhJ3JDYGS4/q+1JJYydw1ObiyVGaAKjK9KAYPJqxGw3+rMqiq4TzR/XqEeYCiUla00OueCDO1WZMU/BgP0GADyEORMgBcoAcIAfIAXKAHCAHyIEIChOrm7rx6/JrXt9D7T2oufENZGt2/uAXJoZjgEZG2DwmpNyq5Zi5vQhZZm/ztccMXg2dtbuRlZKorKyhTP8YNQ5TUhZg9u9jME0nJDRhiyMZWdnmXhhifFsLD2Lwj8AbpwIEyCS5YuRnlpucCfSQiTDRW46s2CQU+VhdJNCSAhEmlLQ6gUFTmpUwoXiyjMDMXdr4IU6RJWCPGU1xAcXF0Fzn2Q1sCovnOu71NQT4EOJAhBwgB8gBcoAcIAfIAXKAHIiQMNH0VS+GHW7G3YealO0w11Z+zz37BWq6bilbs/P/3/HWkG2HcHpMNBUmGwxTQIxcO8NUVut48r6XkF/V5JlW0dOJ641HkP+KA7MLPXEkesqWIH7ubhx9+2HTPOXtulrW9eLlyK/VCDedB5AWuwRmTgCBgijl2MayCDRDbfqq5Yh/OBe12mNh2PdbmJApOaOMgpCmAqbCRA+qsxMQP8vo4RKqMHEdxbNiPCvEaKrh/y6FCf+x6tsp+RDiQIQcIAfIAXKAHCAHyAFygByIkDDx7sUvMXR/g/L95T7ZNrp///bgBXz6ZQ/+46MLpuclfVFzV0jWhE+PCV3uYuTp4ySIwZtV1YAtjtEYP2s9amWlhfbdSHtGliDVCBM91chyLDcsEek0PE2nDOjKlR/iLTFCmSpi9Rbdc1xiJIxAVpUnE5kC4o4vAe92eFL63pNyHn37rO+EgaaQZVaTzeJLBJqRd3q/hAlZxnPWCMQleMcKcedoFCZ6r+PoawmISzD2rVwRujAheGj70V0Pf3c4lcNfpPp8Oj6EOBAhB8gBcoAcIAfIAXKAHCAHIiRMTP3HRfxiVx1+vrPWdDvx8AXT42r6Fyo8HgXBWBbhESY0JYtxPfcl91QErceEeEdM0b1VD0CY6G1CccZ61PYCHgFCUy6A2rcfxpQNDUBzEWaK14E7sGUPjr/m8aZASMJEJw6+HAHxwGXge3sd6NsY9C+joGDMyLWMZ3ziKoN4ZEioyaenuRxvPDMC8c9oA15q04cqTIiA9DDWhuI+IvU1iGnaGnK//yDAhxAHIuQAOUAOkAPkADlADpAD5ECEhImfFZ5CKN9/31ETkmVhLkw0oShJ4xmhGvjdR7DQYOQ5PSZcVehpwJaUJKyt8UyhkGUn1ekVkqrzeC5m51Q7V8YA4JzKkYS1hxpwXbwt/PhYCRNo3o3ZsvznfUnI19QBPeVYOioRW9yrfIj3xcPIOmq1RITToPZe7lRdXcOwNcTM8KMJniQ919FwKBczHxiNKYvsl1H1XBTEnpXnQPtZFGcn4d7YEf6VL4b+w8lImzUO8aNk6c+z6FT5YVKt6uwReDTziHffKquieHiieHRo45CY7QeBs5JvWAKVmjSOh6KKAB9CHIiQA+QAOUAOkAPkADlADpADERAmvuzpxU82VuBfC06EtA3FOjAKE7U5D0MM8nsdzqkYSt6uVRriYkdg/CLXcpuuQnXChLYiiiEsIoEDa095DFBtEnW/U4knkYQpD4xQylYFAX0gRTW1tceEJ4Vhr3Eznnte0x453XwEWSkJuFdrAEfbgO1twJakcZj2ynocbbQSSQxtCfqnmfeCxIZwKOUfb7bvI3exlzZj2gMOpOUdQYM/VW4+gKXPawKbavE2iFzuMsK2Y9bmsGXOjKKMAB9CHIiQA+QAOUAOkAPkADlADpADERAmZFz/0pF6/HhdKX687h9BbeV6foiAXwgMtmkNg629fpGg/ybiQ4gDEXKAHCAHyAFygBwgB8gBciBCwkT/NRNY8/6IgEyDiYu2Z8idAMrlsRNS4Mw7UW+WaYkAH0IciJAD5AA5QA6QA+QAOUAOkAMUJiwNBp4gAkSACEQaAT6EOBAhB8gBcoAcIAfIAXKAHCAHKExE2u5g/kSACBABSwT4EOJAhBwgB8gBcoAcIAfIAXKAHKAwYWkw8AQRIAJEINII8CHEgQg5QA6QA+QAOUAOkAPkADlAYSLSdgfzJwJEgAhYIsCHEAci5AA5QA6QA+QAOUAOkAPkAIUJS4OBJ4gAESACkUaADyEORMgBcoAcIAfIAXKAHCAHyAEKE5G2O5g/ESACRMASAT6EOBAhB8gBcoAcIAfIAXKAHCAHKExYGgw8QQSIABGINAJ8CHEgQg6QA+QAOUAOkAPkADlADlCYiLTdwfyJABEgApYI3Or+FnwQLI8xWAAAHvNJREFUcTBCDpAD5AA5QA6QA+QAOTDYOfAdyxEzTxABIkAEiEBEEbj97W1QnOBAZLAPRNh+/gfIAXKAHCAHyAFygMJERM0OZk4EiAARIAJEgAgQASJABIgAESACRIAI2CFAYcIOHZ4jAkSACBABIkAEiAARIAJEgAgQASJABCKKAIWJiMLLzIkAESACRIAIEAEiQASIABEgAkSACBABOwQoTNihw3NEgAgQASJABIgAESACRIAIEAEiQASIQEQRoDARUXiZOREgAkSACBABIkAEiAARIAJEgAgQASJghwCFCTt0eI4IEAEiQASIABEgAkSACBABIkAEiAARiCgCFCYiCi8zJwJEgAgQASJABIgAESACRIAIEAEiQATsEKAwYYcOzxEBIkAEiAARIAJEgAgQASJABIgAESACEUWAwkRE4WXmRIAIEAEiQASIABEgAkSACBABIkAEiIAdAhQm7NDhOSJABIgAESACRIAIEAEiQASIABEgAkQgoghQmIgovMycCBABIkAEiAARIAJEgAgQASJABIgAEbBDgMKEHTo8RwSIABEgAkSACBABIkAEiAARIAJEgAhEFIHoChOXdwN7/w23i/8NuFwc0YYxcyJABIgAESACRIAIEAEiQASIABEgAkSg7yMQPWGieROwfwjwiUP53t4zBPh8c99HiDUkAkSACBABIkAEiAARIAJEgAgQASJABCKGQHSEicubgMM/Ao7HeBpSMRa3D/wIaIq2ONGD6pwkzE55CTPfrkaPp0b9Yq+nahWmvX22X9SVlSQCRIAIEAEiQASIABEgAkSACBABIuALgcgLE81vAWU/BMp/ABz/AdC+G/jyKPCPHwKH/wX46EdA7Su+6hm+87W5WFjcqeR3ffsSbGkMX9bhzKk6OwZx2dWeLJt3I23RAXSiCVuSluC4naJStRxxyUW47rla2fPKU3teroldDk2J2rOh7Ucy79BqxquJABEgAkSACBABIkAEiAARIAJE4A4jEFlh4koBcPyHwMnvA1U/AKq+D3zyfaDy+8CJHwDHfgAc/RfcFnHi3LIwQ9GJgy+PwOxil3neU46lscko2mcuTChGe2wM4iy+UzY16Op3fXuyZVo1j5nbjdKALgvbH94iQg+Ov5aELZeApsJkvGGnTFCYsMWWJ4kAESACRIAIEAEiQASIABEgAkSg7yAQWWGi+jdOEeLU94ED/8vz3f+/gL3fBYq/Cxz5PnDkX4CPfxpmVK6jKDkGafuc3hFANd4YNQJvnApwKkdvObJiRyCrSl89RZgw8UpQU4mwEF5hAoBM4zAIJGp5um2YhImeS2dRvHUJZieMw8xdwYssoMeErnv4gwgQASJABIgAESACRIAIEAEiQAQ8CERWmLjwAiCiRM33gOL/F9j+T55v0T8B7/8TUP59oPSHwNlkT63CsidCRIxGULiO4llaocLPQmpz8WjsEhw1TJ3wJUwcz4yAMOFnlRUhwEQ08fbC0GSoiAcLsKWsCG+8koQn74tB/AMOpGWuQtofYjBta5Mmsbp7HQdfdnpxqEeqV49D2j6DiEFhQoWHWyJABIgAESACRIAIEAEiQASIABEwIBBZYaK3Azh3D3D2e8Dxf/b+/uN/uzwqxgDfdBiqFuLPzgNIk6kbrZ58qlePwKMBBo5s2JSIuJcltoP+Yy9MOL01wu4xoa+C9a8APCacXhHLkeYYjbjY0XgyZQm2FFej4bpLiWnfjdk6HJtQPMsjRtS+/TC001wUQcboXUFhwrqveIYIEAEiQASIABEgAkSACBABIjDIEYisMCHgijjRMAqovcspUIhIIV/5ffouoHa0M024O6JxM6YYgjle35WMuFm7vYJCWhd9FmsfNveysBcmmlCUpPXWsC7B6ozi3TBqHGZmbMbRRqMsYnWV67i/wkRrEWYnvISleUU4vnWBafDLpq0OxM3drRNmanMexqM5rpVBxKPkD5vhjMDhFGSM016cUzlGYPwzLyO/+CyaDN4nPlrD00RgwCJw7dpVFGzIx7KlGfwSA3KAHCAH+jkH5H4u9/VQP199cxsdX32Lqzd6cbnrG7R08ksMAuOA8Eb4IzwSPvFDBPoDApEXJgSFb13ihCpKqNv6eyIjSgDo3Pey98oUyrSM5Tje61/X9JQtQfwo8xUwbIUJJS5FomfFj9YizLQIqmkVKFMRJtI342jey5imTKtIRlbxWXT6U3d/hQktDGZeDT3VyHp4BJaWGZSES5sx7eFc1Epdequx9plVOC7aidLuZKjxRt3ZK3kvQXFVEbJmjUN87Gg8l70bte3uFNwhAoMSARnEVlWeHJRtZ6OJABEgAgMNAbmfy309mM/t20Dn198qQkRr1zcUJCjGhEWQEoFC5ZPwS3jGDxHoqwhER5iQ1os4oXpKyLb+VxETJaQ4mbYRv9qw+KViOD+MtbX+dIfz7f94Yx7+XKp4a3jHpfDnUjWNLh5Ebw+aynIx84ERiLsvCWurfHhQ2AgT2mkXalnK1kSYaNjkQJxjM7yjSzRgy/Mv46BmmoySh857QpO7Ie+e5nKsVQWKnGqdN4bmKu4SgQGPgHhK8EMEiAARIAIDB4Fg7uvdtzyCBD0DAvMMIF7+46UKFMI3fohAX0QgesKEtF4EiaPfBWruAk7dBbQVRAiTBmz5QwyWGiNWQpYQjdHFRLCqgEz7iH84AU+OSkBWlcFjwOoi13HFm8Iw/cHHJV6ndcKEera3E9V5L2Otr/qYChPO4J+Wq2sYxAM0F2HmqARlFRO1eF9bZYqHWQwPY96ujDpPrUdaTjUCQ9dXLXieCPQfBIIZwPaf1rGmRIAIEIHBh0Cg93VxtReDkQY2MYgWB4Rvwjt+iEBfQyC6woSIEfu+C3xyF1D1A6D7VGTwUKZOvIyDJo4Fimhg6gWgqYrLKM+q6kTT9mTEJyxHdbfmvN1ubwO2OEZolim1S2x9zlSYsE7u+0zPESyNtfEWMYgHnadykbY6ANGg+wiWjnJgyyWTqhjyNknBQ0RgUCIQ6AB2UILERhMBIkAE+hECgdzXv/iqN2hR4v+Z+hnFDE73CJoDIk4I//ghAn0JgegKEyd/ABR/FzjxA6D8h8CVyHhMmAVsdIOuiBYWBrQkaj6AhQkjMHO7OoFBPA1G4Mls/4z0psJkJbZFU4j/9XALE4ogk7DeFaTSjYZnJyTxoAfHMx/Gk1ZCRkh5e6rIPSIw0BAIZAA70NrO9hABIkAEBiIC/t7XQ/WUoDBBD4tQPSzoOTEQ70D9u03RFSb+8UNg5z8DpT8EjvxL+JcIlb7olZU0TAI2uvupE8VzYzyrSriPAz31mzH7vhGYYjSwGzdjWmyCz9gUTdtfwr33vYTiZk2mQe6GU5gQ74dpvqakBC0e9KD2bQfuTVxl7VUSdN5BgsfLiEA/QcDfAWw/aQ6rSQSIABEY9Aj4c1+XOf6hTt+gMEFhIlRhQq4XHjLmxKC/bfUZAKIrTJT8CHj/fwMf/Qi3D/wIOLcs7EDIahzx6ooRFrmrq20cVadn9HaidutLuDc2AQuLVU8J7cU9qM5+WAkE2WDiCaEEc3x+NOITl+Pode11we+HLEz09uB64xHkv5yI+FGJyPJVsc4DSIt1IL8mgIgPreVY+/xo3Dt3MxpULM2aTGHCDBUeIwLK0oCDGYbmgxlYeeICdix+HcUdgxkJtp0IEIGBgoAvYUJWRQjHEqAUJihMhEOYkDyEj1ytY6Dcgfp3O6IqTNwuvQ/48Ee4vXsIcOQ/gVvhHon2oHZDMhbuMwkuoe0n8apIWYVqdbnK5iKkzcrFceMqE9pr2g8ga9FuNBjt9u5qZDkcWLrdz6U8tXna7IcqTPQcX44pCS9h6dZyNBnrbFFu06HlmJ0oy3nGQF3G1LlNRpERm55qrHUkYe2hJt/BKylMWCDOw4MdAV8DWCt81p1ox9icRnwn9VPcteAsnlh/ESXnb1glv7PHT+dhmiMPJ3S1qMFKxwLsOPEh5qyuQPPhDKQfDvfzQFeg/kfbx3ht2X5c0B8F0I1Dq5PwWrmd0up1kXLgRN5UZJXfMj/Jo0SACAwaBHzd12XJxlC9JcSY7L/CRDO2/iUBsz9odsZHOLwcQ57eilP+xIv4bCue+/0q7Gm9w6LEtRvWsR3KV2HiX/aizmd7mvH208OwsPQOt8XlNSG85IcI3GkEoipM4NaXuF0yDvhoHGSfHyJABIjAYEbA1wDWiE37V72KIPH4+ouoavnKfbqophO/+fs5iGAR0OfafqQ5pmKa1Xd1BUI2te2EiWvN2JyehxMt+5H+zidBl3Xr2ifYvDoDLyS52pI0A2l/ew9lbRZoSLtf3Q/jrLvu6ly88LdcZKXnocxK3/aFmQmWK09b1IOHiQARGHAI+LqvB+MtISKEv99wvUXfkzEEQ4bYfafh7c+CMarFIB+Cp7cELkzUfTAXQ+5dhY98Gv2B1qsNpdtWYWbiKAxV2jwMIx6bhYXbzqDRWFZ7FZZOeBALD5uJEzfwwbwELC33p3zBIVgM/ck/sDTCS36IwJ1GILrCxJ1uLcsnAkSACPQhBHwNYI1VTd9/BU9vNZtuBoho8X+X1kFEinB8qvOfwbS8mtCzshUmQs+++Wg2XvifbOw414GO8tWYJoJDbwfO7MvGC39cgB1Gby8p0kyYaN2P9JQ8nBBnCWU/G8Ut/tdPPCYoQPiPF1MSgYGKgN19/atvbgflLVF4ogvGrwgVxmPyO1zChG0+n23FlCGLscdotPv12ylMLDzsMpz99phoQ/4LVkLJf/opBpgY661VWJr4W0xc9jFOXTuDNyYOgdSt8bOPsTBxGO7POOYtTpzZiqcnLHZ7bpzaOM1axMk4ZtEnFsKEgq2xnZEXMMSLR/jJDxG4kwhQmLiT6LNsIkAEBjUCdgNYIzAiPMjUDdlafcRjQrwpwvERQ3tafvDChHK9ifeAqXdGsALIuQKd+NC8b4FOTGneswDT0j70TNkw8XYQMaGj4QOkp6zGIa2HRVsFVqa8iNf21aNDC7kitNh4mZi0ebE7oFE4eoZ5EAEi0JcRsLuvy0ocwXhMmIkEd3Qqh4gJQ5b7FibObMVzM7ei4ppWEAhSmDi9HhOHJOKN09q8vkHL6fV4ZMhf8YGuDEMaS8GkDVtf1IoPx7BwiEYEaD2GtHuHIW2ft3fEqW3L8bdy53ERJqZsdHmAaMsSkcEoTCjYGYUH529FrJFrdFNbLAQMbTlh2BdeCj/5IQJ3EgEKE3cSfZZNBIjAoEbAbgBrBEZiSNy7ptF42Ou3iBehf7pxIHMq0vZdDT2riHlMdKB42TNYfNQTm6J5zzy8sLneU+feGqz844vY/LnnkOzdEs+KGQWo7u1G9eZ5eCH9PezYOs9rSkvanhqUbZyH6Um5OKHOaZH2GIWU3gs4dPiCXsBwFSliCT0p9PjzFxEYyAjY3dev3ui1eHvuryHtSacVJsobv0Lhya6Av2aCh1/HPlqMIVO3osLOIG49hoUThph4HAQjTMgUiWEYOv9jL+8FZXqHr7pY1bN8FcZM0E4NOYa0IXOxtcmDs+INMc+7XC1OAQkT7roIDs8h/7yzrIrcBMVTo+UOCRPSHuEnP0TgTiJAYeJOos+yiQARGNQI2A1gjcCIMOGPN0R4hImr2PFqHxcmOkux+I+rUeYJtQHx0tCLKbdwaPVUGD0WTnwwF7PS5uGtox3ovnZVJyiYCgnasZqJMCGeGel7mp0xMq6V4q2d9VDDZ0p++joZe5a/iQARGEgI2N3Xw+UtIUakVph4adNVv2NQyHXqV2tcB7JfsX4ahtgZ603HsPCxYbh//scmQSADFyYaDy/H/Xc/h/zD2/HczPUo1QgHezKGYczfq4ISfD76+39i4jvnPdcq0ygMniDikeEjrkVwUzmqsPReT1kS08PaY8KTLpB+CjQt40wMpDtR/2wLhYn+2W+sNREgAgMAAbsBrLF5jV/cUmJIGI9rf0tATAmCGfrnKgpfMYmZYDIVwjg1w8sIN/OY6P3EuSrHNUNNA8lf8s0shcdfwimmGL0TvMSKryrwVmEBVuZ9jOJVuSjrdl5nbIf7t1UAUIlDkZ6HQ4fzkJZX4xQieptRuPhFrDytyhKG9vEnESACAx4Bu/t6oIaiXXqtMPHOkS/xf6afw/4z3R4j2/1m3vP2X81v+tutuDv1gl9p1Ws8W/FeGIIp6zUGvbasM9sxc8IQjJlntTKFH8LE6e14Qw0uqXheDMPTG6W8NpTmPoeh/zELb5+Rdolxr48v4Ttop2rkSz3017aYxbvQiRXOuqtBQYcucwoilh4TWly89o8hbeJ6t9dJXxAmpI/5IQJ3EgEKE3cSfZZNBIjAoEbAbgBrBoxM5bBbeUM8Kv529LrZpQEek+U8TYSJAHNRkpsJE4oAkYsyrSdCgHkb40kANXhLgl0axA4l1oVm6kXH4Wy8U/cJVsqxugK8dvAqynI910l6t7gh9dRca6zirWulWJkyF2+JENF7FTs0okTzwQws/vCC23PCeC1/EwEiMDARsLuve4x7b7Eg1HPZ+9r9EicmrWpRRInaKz3BCRPXPsbsIQnesR5ENNj4Vzxy94O4f8IQ85gLinEucRw0goCJGPDR8v/EGFfQyYoP/qrEadCujlHxwVzcf3ciFi6bi6G/9xj3gWFoiCfR+Q1ObXkOQ4wxIRRhQhN3QhUYDi93t9HWY2KIyxNCvU7diifGix7xhsLEwLwfsFWBIUBhIjC8mJoIEAEiEDYE7AawZoXIiht3LTiLbIP4IAExp73X5FcMCrN8vY+JMDEPhWYrWngntj9iJkxU52LaKx96Lddpn5H+rJcw0foh5swowBl9Mv30jt5mbF4ssSVqnMKEpO2FTpjQihTK6h02woRSVPcFbF78ImalvYisw1fR0dmNjs5mnKksxVtpz2BWvsubwlAv/iQCRGBgImB3Xw/nVA4zI9yXOBGyKCHGu6xAYRAD6k7vxdKnf4uhjy3G1vPfQIxs02CQLmEiTRtg0ihMWAkBqkHv2lZsfA5DhwzD7N3egSnNsPE+5i1M7Fk4BDM/aNMLNjqPCY2gZBAmrNq7J8NE1Oj8BhIb45Fcj9fJngyXWCPleQW/VL08NOUb8PBuX+BpOZVjYN6T+lOrKEz0p95iXYkAERhQCNgNYI0NlWka6nKg4jnx49fq8MT6ixib06iIFbN2XjZeEvzvtv1Id3i8CILPyPzKE3nP6INUmiezPdpx9HVdEErl95oKZ5wH95XN2DxnKrLKnZErrx5+HXM+bIZ4VygeE0q6wKZySIBN9zQPxzN4Yc6LmCXfGc/ghSW5eCs/D2/lf4Diyk9QVlmD4rwXkX4wDEFE3W3iDhEgAn0ZAbv7ejiDX1oZoqo4IdM7tGnCIUq0XNyLmXcbxYA2bJ2diNkbz7jjSdgKE2e2Ysrdy/GRaljrhAlnkMv7/YgZIcJEbJKPAJxqGaZbmQaiFQ3kt/eqH427/4ohmikXbkxDEiac7VxYqooHzchPctXFVJgIdtURNX//tgx+2ZfvLIOjbhQmBkc/s5VEgAj0QQTsBrDa6qqihGzVj8SckICY8rVbQlRNH9BWmWrxOg50BnSVf4lbP0RaOEQPWSr01f0urwvnCh1Z7qUzXFWpk+VENQEyuztwVSCUGBdmnhCff4A5r8xD2rL9aLaaZtILj/jRuh8rC52BLj1BM7txaPVcrKx2xZnoFQ8K/6BhKiJABPo/Anb39XAuF+o2kE2MbhEnJAaFbCXdyFcvhTZ9Q8poPYM3krRLa1obu3bCRMU7ifrAmRphQvGCMHhjmLVTmcrxH7OQr8SZsK6H2bWeY86lQpWAk9I+WaHDq+w25L8wRB8gU8XbIEyocSfMtu4y1Gsvbsdzd2u9ICR2hWuFDlNhQiugBNte++vEW4LLhfb/+09/bwGFif7eg6w/ESAC/RYBuwGs2igzUUI9F7GtGP2OPJwIcwESkyHrf55BejiWIe2txzsz5iK/AbjV8B7m/E8BzmjFhM5PsNKqLBFeFu+Hzo9B0qcswI5WoPt0HtL+/jEuaPMzYNHR8CHSZyzA5ganAOERJgB01+CtlBfx2j7GmDDAxp9EYMAjYHdf/+qb22jtsjcQPYZzaOkkwKUIEpKfiBRBx5QQY/r8XqQ9NgyxL2x3B2u0q6e1MOEMVrlQDWwpebuEiY92L1ZW3nAGtbRqexv2LEtUgl+GJko486/bNgtDJUhnexu2zvut1zSOivXPYeiE5djTaqhP+3m8/ZdpmPiX7W4vETs8jOc++vuD0HuFyLQSl1ChTB0ZAr3AEXlhQngp/OSHCNxJBChM3En0WTYRIAKDGgG7AawAE1FRQon9MFUzLcFuP7RpHbc6LuDQxgWYnvQiXjvsWlYzDD3fXfce0pKmYtqM190CAW5dxYl9uUhLsonvIMKE6m3RewvNlQVImzkP+XWe1TQ6zhRgzox5eKesWbecKL5qxoF35mF6SjaKWzyN0AkTclhiTyx7BtPT81DW5knHPSJABAY2Ar7u65GOM6EawbKEqFaYUI8HtL1YhfyMaYgd8ls8945nqoavPMyFiRvYk/EghmoCPir5iDAxZAiG2HpA3MCpfavw9D0ijuiXC/VVF/vz57H1LwkYOuS3mJjhWdq0rmov/jYzwVQAqTuxFbN/71wVRJYxfXrhdpSet4lz0dqGuqY21F10pnEuffpXfKAVO06vx0Q1rsQd9JgY2P9Mtq4/IEBhoj/0EutIBIjAgETAbgAbUVEimmjK9IgZc7G4sBQXIj6lQaZRJCmxHopdngymTVWFCfFs+EsS0jZa1O3WVZQVvo5Z6dpAnd2oP31BL1YAOLM5CV5LpcKZ1iN3mNaGB4kAERhACNjd16WZnV9/GxWvidCFCRESEjElYzs+umjwGFCnJFhsTYWJ83sx+2kT74MTuZgox23KEGN+4u//irfLDYEpLcq3FyN8tOX0eky5JxEzV32MU+3eaSveWYw3qjxCRN2J7Vj4QgIeuWeYwcvB6fUQOyEBj0xMwHPK8qo3UPHOX+H2GJGVOUSUuTvBc0xw+stenHK3rRlb//JXJahoSO1y5+fdJvGWEF7yQwTuNAIUJu50D7B8IkAEBi0CdgPY7y04q3hMDFpw2HAiQASIQD9EwO6+Ls25fRuIhtdE6MKEtwEbKcOY+d5ZrIWPwkt+iMCdRoDCxJ3uAZZPBIjAoEXA1wB20ALDhhMBIkAE+ikC/tzXu29F3mtChIlhqRdQeLJLiTFB4//OGv99FX/xlhA+8kME+gICFCb6Qi+wDkSACAxKBPwZwA5KYNhoIkAEiEA/RcDf+7qsgBDJQJgiTEjQS/XbVw1j1uvOCSbCP67E0U9vNAO02hQmBmjHsllEgAj0fQT8HcD2/ZawhkSACBABIiAIBHJf/+Kr3oiKEzT675zR39exF1FC+McPEehLCFCY6Eu9wboQASIwqBAIZAA7qIBhY4kAESAC/RSBQO/rkfac6OsGMusXffGEnhL99OYyCKpNYWIQdDKbSASIQN9EINABbN9sBWtFBIgAESACKgLB3Ndljr8EIIzk1A4KANEXAPoa5sIv4RljSqj/Vm77GgIUJvpaj7A+RIAIDBoECjbko6ry5KBpLxtKBIgAERjICMj9XO7rwXxkVQRZslEVKGTb1wxb1qf/9YmWT8Ivrr4RzL+T10QLAQoT0UKa5RABIkAEDAhcu3ZVGcTKGzZ+iQE5QA6QA/2bAyJKyH091M9X39xWghJevdEblaVFKTj0P8HBV5+JICH8kalCwid+iEB/QIDCRH/oJdaRCBABIkAEiAARIAJEgAgQASJABIjAAEWAwsQA7Vg2iwgQASJABIgAESACRIAIEAEiQASIQH9AgMJEf+gl1pEIEAEiQASIABEgAkSACBABIkAEiMAARSAqwsS5r7/Fhuvf4M0rt7Cn45sBCiWbRQSIABEgAkSACBABIkAEiAARIAJEgAgEikDEhYl3rn2DuE+73d9/r7mJJ+tvou6rb1FU04mxOY2oavkq0Hr34fQ9qF6ZjC311XjDkYva3j5cVVaNCBABIkAEiAARIAJEgAgQASJABIjAHUYgosJESWevW5DQihOy/9S5r/Cbv5/Dd1I/xdNbm9ww9BeR4vr2ZMQlF+G6u+YAWoswM3Y5jpYtwbRNDajNcWBtjTaBP/vVyIqNQZzmm1Xluk7JX3POWL5d9nLtw7motUvDc0SACBABIkAEiAARIAJEgAgQASJABKKMQESFibkXv0bc6W7Enr7h3J7Sb/85yylMiDjxxPqL+PFrdYpQIZ4UoXwU0UBj2GuNfNlferQnlOyVa+2EieqeI8iatRtNVaswc7tHdAm6UNXrQsSF7GpXNtXIClSYCCR90JXlhUSACBABIkAEiAARIAJEgAgQASJABPxHIKLCxLPnbyL2VBfiTt1ArPqt7nLuV3fhrjcacO+aRkWMEHFC/TZ+ccv/FgSUshpvjIqB2wMhoGv1iW2FCX3SgH5VZ2s8IlRxRRUUTq3Ck2+fdeWnESZOrUdWmSrmXEdRskkeal6m2+VQ5Y6AKsvERIAIEAEiQASIABEgAkSACBABIkAEQkTg/wdBDU8k+nud6wAAAABJRU5ErkJggg==;" vertex="1" parent="1">
          <mxGeometry x="40" y="40" width="862" height="267.85" as="geometry" />
        </mxCell>
        <mxCell id="HQY0Pmsq2hyEvdaL4K9q-2" value="" style="rounded=0;whiteSpace=wrap;html=1;fillColor=none;strokeColor=#FF0000;strokeWidth=4;" vertex="1" parent="1">
          <mxGeometry x="40" y="200" width="270" height="30" as="geometry" />
        </mxCell>
        <mxCell id="HQY0Pmsq2hyEvdaL4K9q-3" value="" style="rounded=0;whiteSpace=wrap;html=1;fillColor=none;strokeColor=#FF0000;strokeWidth=4;" vertex="1" parent="1">
          <mxGeometry x="330" y="170" width="110" height="40" as="geometry" />
        </mxCell>
        <mxCell id="HQY0Pmsq2hyEvdaL4K9q-4" value="" style="rounded=0;whiteSpace=wrap;html=1;fillColor=none;strokeColor=#FF0000;strokeWidth=4;" vertex="1" parent="1">
          <mxGeometry x="440" y="170" width="150" height="40" as="geometry" />
        </mxCell>
        <mxCell id="HQY0Pmsq2hyEvdaL4K9q-5" value="" style="rounded=0;whiteSpace=wrap;html=1;fillColor=none;strokeColor=#FF0000;strokeWidth=4;" vertex="1" parent="1">
          <mxGeometry x="50" y="110" width="130" height="60" as="geometry" />
        </mxCell>
      </root>
    </mxGraphModel>
  </diagram>
</mxfile>
